<svg id="Component_4_1" data-name="Component 4 – 1" xmlns="http://www.w3.org/2000/svg" xmlns:xlink="http://www.w3.org/1999/xlink" width="437.432" height="122.068" viewBox="0 0 437.432 122.068">
  <defs>
    <filter id="Path_15" x="99.932" y="49.777" width="337.5" height="72.291" filterUnits="userSpaceOnUse">
      <feOffset dy="3" input="SourceAlpha"/>
      <feGaussianBlur stdDeviation="3" result="blur"/>
      <feFlood flood-opacity="0.161"/>
      <feComposite operator="in" in2="blur"/>
      <feComposite in="SourceGraphic"/>
    </filter>
  </defs>
  <path id="Path_14" data-name="Path 14" d="M3.456-16.341,26.095-68.586h1.389L50.053-16.341H41.442l-3.125-7.211H15.262l-3.125,7.211Zm31.25-15.453L26.789-50.042,18.8-31.793ZM57.067-59.756a13.664,13.664,0,0,1,2.4-4.489,14.1,14.1,0,0,1,3.715-3.2,17.088,17.088,0,0,1,4.653-1.913,21.381,21.381,0,0,1,5.208-.625A22.285,22.285,0,0,1,82.31-67.96,24.506,24.506,0,0,1,90.123-62.4l-5.486,6.475A17.673,17.673,0,0,0,79.185-59.9a15.11,15.11,0,0,0-6.424-1.4,13.763,13.763,0,0,0-3.056.331,7.632,7.632,0,0,0-2.6,1.1,5.7,5.7,0,0,0-1.84,2.06,6.681,6.681,0,0,0-.694,3.2,3.25,3.25,0,0,0,.278,1.4Zm8.125,7.285a8.278,8.278,0,0,0,3.3,2.87q2.326,1.251,5.278,2.5t6.076,2.686a27.162,27.162,0,0,1,5.729,3.532,18.33,18.33,0,0,1,4.306,4.967,13.482,13.482,0,0,1,1.7,6.991,12.774,12.774,0,0,1-1.6,6.512,14.911,14.911,0,0,1-4.1,4.6,17.319,17.319,0,0,1-5.66,2.723,23.264,23.264,0,0,1-6.285.883,28.386,28.386,0,0,1-5.382-.515,23.335,23.335,0,0,1-5.139-1.619,21.982,21.982,0,0,1-4.618-2.8,19.259,19.259,0,0,1-3.819-4.047l6.458-5.372A11.721,11.721,0,0,0,67.171-24.1,21.017,21.017,0,0,0,74.22-22.89a16.529,16.529,0,0,0,2.986-.294,10.34,10.34,0,0,0,2.986-1.03,6.749,6.749,0,0,0,2.292-1.95,4.978,4.978,0,0,0,.9-3.054,5.243,5.243,0,0,0-1.806-4.01A19.321,19.321,0,0,0,77-36.245q-2.778-1.361-6.076-2.723a46.346,46.346,0,0,1-6.285-3.164A22.873,22.873,0,0,1,59.428-46.4a11.879,11.879,0,0,1-2.847-6.071Zm31.319-7.138V-67.85h40v8.242h-15.9v43.268h-8.333V-59.609Zm55.417-8.242v31.936a13.154,13.154,0,0,0,.972,5.261A11.212,11.212,0,0,0,155.47-26.9a10.356,10.356,0,0,0,3.646,2.244,12.145,12.145,0,0,0,4.132.736,12.048,12.048,0,0,0,4.167-.736,10.425,10.425,0,0,0,3.611-2.244,11.212,11.212,0,0,0,2.569-3.753,13.153,13.153,0,0,0,.972-5.261V-67.85H182.9v31.936a23.679,23.679,0,0,1-1.7,9.309,20.36,20.36,0,0,1-4.444,6.7,17.817,17.817,0,0,1-6.285,4.01,20.467,20.467,0,0,1-7.222,1.325,20.467,20.467,0,0,1-7.222-1.325,17.817,17.817,0,0,1-6.285-4.01,20.36,20.36,0,0,1-4.444-6.7,23.678,23.678,0,0,1-1.7-9.309V-52.471l8.333-7.138H143.6V-67.85Z" transform="translate(-3.456 69.984)" fill="#ff2d00"/>
  <g transform="matrix(1, 0, 0, 1, 0, 0)" filter="url(#Path_15)">
    <path id="Path_15-2" data-name="Path 15" d="M7.2-16.791H17.606V-47.066L32.322-16.791H36.2L50.978-47.066v30.275H61.384V-67.734H50.978L34.292-33.384,17.606-67.734H7.2ZM70.558-67.734v10.261h38.483V-67.734Zm0,20.377v10.189h38.483V-47.357Zm.185,20.3v10.261h38.3V-27.053ZM118.03-16.791h10.406V-51.869l25.122,35.223,11.76-.146L128.436-67.734H118.03Zm36.882-27.364L165.318-30.4V-67.734H154.912Zm16.625-23.579v10.189h48.088V-67.734Zm18.841,50.943h10.406V-49.54H190.378Zm83.554-25.471c0-18.194-13.3-27.145-24.567-27.145-11.329,0-24.567,8.951-24.567,27.145s13.238,27.145,24.567,27.145C260.632-15.117,273.932-24.069,273.932-42.263Zm-10.652,0c0,10.407-7.512,15.428-13.915,15.428-6.465,0-13.977-5.022-13.977-15.428s7.512-15.5,13.977-15.5C255.768-57.764,263.28-52.67,263.28-42.263Zm-18.718.073c0,3.42,1.847,5.6,4.8,5.6,2.894,0,4.741-2.183,4.741-5.6s-1.847-5.677-4.741-5.677C246.409-47.866,244.562-45.61,244.562-42.19Zm57.755,6.259,11.391,19.14H326.7L313.462-36.95c5.788-2.4,8.682-8.66,8.682-14.846,0-8.005-4.68-15.938-14.162-15.938H282v10.261h24.2a5.562,5.562,0,0,1,5.911,5.677A5.562,5.562,0,0,1,306.2-46.12H282v10.189Z" transform="translate(101.73 125.19)" fill="#5b564a"/>
  </g>
</svg>
