<svg xmlns="http://www.w3.org/2000/svg" width="1258.322" height="951.25" viewBox="0 0 1258.322 951.25">
  <g id="Group_4" data-name="Group 4" transform="translate(-1798.733 -780.677)">
    <g id="Group_3" data-name="Group 3" transform="translate(1480 437.303)">
      <g id="Group_2" data-name="Group 2" transform="translate(-77 285.358)">
        <g id="Group_1" data-name="Group 1">
          <rect id="Rectangle_2" data-name="Rectangle 2" width="105" height="932.446" rx="50" transform="translate(858.736 854.144) rotate(-141)" fill="#006a00"/>
          <rect id="Rectangle_1" data-name="Rectangle 1" width="95" height="1062" rx="47.5" transform="translate(1525.129 58.017) rotate(39)" fill="#5858ff"/>
          <rect id="Rectangle_3" data-name="Rectangle 3" width="104" height="938.851" rx="50" transform="translate(1573.232 214.194) rotate(39)" fill="#f83333"/>
        </g>
        <circle id="Ellipse_2" data-name="Ellipse 2" cx="255" cy="255" r="255" transform="translate(1009.901 272)" fill="#fff"/>
        <path id="Ellipse_2_-_Outline" data-name="Ellipse 2 - Outline" d="M255,1a255.88,255.88,0,0,0-51.191,5.16,252.6,252.6,0,0,0-90.822,38.218A254.744,254.744,0,0,0,20.96,156.132a252.714,252.714,0,0,0-14.8,47.677,256.487,256.487,0,0,0,0,102.382,252.6,252.6,0,0,0,38.218,90.822A254.744,254.744,0,0,0,156.132,489.04a252.714,252.714,0,0,0,47.677,14.8,256.487,256.487,0,0,0,102.382,0,252.6,252.6,0,0,0,90.822-38.218A254.744,254.744,0,0,0,489.04,353.868a252.713,252.713,0,0,0,14.8-47.677,256.487,256.487,0,0,0,0-102.382,252.6,252.6,0,0,0-38.218-90.822A254.744,254.744,0,0,0,353.868,20.96a252.713,252.713,0,0,0-47.677-14.8A255.88,255.88,0,0,0,255,1m0-1C395.833,0,510,114.167,510,255S395.833,510,255,510,0,395.833,0,255,114.167,0,255,0Z" transform="translate(1009.901 272)" fill="#707070"/>
      </g>
      <path id="Intersection_1" data-name="Intersection 1" d="M812.578,1509.36q-1.205-.076-2.409-.164a258.179,258.179,0,0,1-101.081-29.053c-25.092-13.177-43.992-27.37-65.323-49.054a245.238,245.238,0,0,1-52.208-77.786,252.335,252.335,0,0,1,5.4-211.97c16.263-33.04,36.512-59.469,62.689-81.827a263.345,263.345,0,0,1,133.448-60.762,259.636,259.636,0,0,1,32.79-1.927h0c15.893-.091,32.5.752,43.454,2.483,91.987,14.533,167.155,74.937,201.913,162.253,9.387,23.582,14.956,50.837,16.4,78.191v28.348a234.1,234.1,0,0,1-4.275,34.041c-16.175,79.364-66.907,145.3-139.3,181.039A261.9,261.9,0,0,1,845,1509.36Zm-211.3-368.126c-24.857,49.772-32.339,108.189-20.965,163.676,13.106,63.939,53.765,123.2,109.358,159.389,33.618,21.884,67.974,34.2,112.086,40.167,11.941,1.616,43.634,1.377,58.293-.44,86.728-10.749,160.51-62.972,198.814-140.718,46.834-95.058,28.268-209.794-46.252-285.83-21.34-21.774-40.947-36.211-67.26-49.523-37.036-18.736-73.988-27.5-115.972-27.5h0C732.161,1000.459,644.6,1054.5,601.281,1141.234Zm221.131,361.757a189.419,189.419,0,0,1-19.45-.772c-116.645-13.34-208.126-102.192-223.382-216.966-2.317-17.438-2.306-48.378.024-65.019,10.357-73.957,50.545-136.668,114.1-178.039,10.587-6.891,39.171-20.974,50.414-24.835,26.843-9.22,49.02-13.279,77.463-14.177q5.408-.17,10.747-.136h0c53.4.359,101.714,16.23,146.633,48.127,12.353,8.772,36.022,31.207,46.4,43.979,28.417,34.982,46.641,75.983,54.051,121.6,2.659,16.369,2.65,56.378-.017,72.808-17.64,108.673-99.116,191.336-207.372,210.393-10.55,1.857-32.233,3.041-49.585,3.041Zm-7.283-25.859h4.048v14.3h7.806c4.4,0,7.807-.519,7.807-1.19,0-.656-2.973-1.192-6.606-1.192-5.7,0-6.6-.312-6.6-2.274,0-1.9,1.049-2.34,6.457-2.681,6.1-.386,6.526-.228,7.7,2.869,1.183,3.113,1.636,3.278,9.07,3.278,7.547,0,11.6-1.7,11.6-4.854,0-1.686-1.929-1.32-3.6.682-.989,1.182-3.675,1.787-7.931,1.787-5.79,0-6.507-.287-7.158-2.858-1.616-6.388-.353-8.345,6.081-9.421,4.071-.681,6.719-.564,8.224.358,2.849,1.749,4,.628,1.918-1.862-.812-.97-1.741-1.417-3.638-1.453a34.785,34.785,0,0,0-4.641.354c-8.181,1.011-10.871,2.345-10.871,5.391,0,2.044-.841,2.342-6.606,2.342-4.965,0-6.6-.428-6.6-1.725,0-1.237,1.757-1.828,6.211-2.085,3.416-.2,6.421-.993,6.678-1.766.344-1.037-4.12-1.4-17.021-1.388-9.751.01-17.484.5-17.484,1.108s1.934,1.09,4.3,1.09h4.3l-.835,7.746c-.563,5.212-.416,7.745.446,7.745.7,0,1.647-3.217,2.1-7.149l.814-7.15Zm43.318,10.315c1.2,3.094,3.068,1.618,2.365-1.866-.788-3.911-.265-4.272,7.93-5.492,5.341-.794,5.452-.743,6.254,2.884.949,4.286,2.964,4.929,3.168,1.01.1-2.017.274-2.165.688-.6.532,2.021,2.789,3,2.76,1.192-.008-.492-.772-3.708-1.693-7.15s-1.44-6.257-1.149-6.257a95.148,95.148,0,0,1,8.587,5.364c7.305,4.863,11.083,6.469,11.083,4.712,0-2.707-4.113-16.033-4.949-16.033-1.386,0-1.324,1.974.239,7.559.705,2.519,1.062,4.8.792,5.067s-3.509-1.661-7.2-4.284c-4.346-3.088-8.015-4.769-10.407-4.769-3.41,0-3.7.318-3.7,4.1,0,3.941-.2,4.127-5.389,4.9-6.589.98-9.022.171-9.022-3,0-1.331-.6-2.42-1.339-2.42C856.181,1472.364,856.9,1483.441,858.447,1487.447Zm-85.611-7.11-.682,4.993,4.6.766c2.528.421,5.137.946,5.8,1.168,2.9.977,7.619.465,8.807-.955,2.127-2.542,3.094-11.325,1.461-13.275-.795-.951-4.512-2.316-8.259-3.033s-7.934-1.537-9.305-1.823c-2.12-.442-2.818.5-4.668,6.3l-2.176,6.822-3.881-8.452c-2.784-6.061-5.48-9.593-7.146-9.648h0c-.555-.018-1,.349-1.287,1.139-3.55,9.624-5.038,15.237-4.18,15.764,1.313.805,1.6.282,4.278-7.74l2.185-6.554,4.249,9.271c4.691,10.238,6.708,11.2,9.3,4.433l1.6-4.17Zm124.108-14.885c-.886,2.291,2.19,10.747,4.527,12.442,2.11,1.531,8.056.365,14.225-2.785,3.06-1.564,3.367-2.226,2.758-5.954-.971-5.934-3.906-9.9-7.328-9.9C907.219,1459.256,897.737,1463.4,896.943,1465.452Zm-160.979,5.06c3.666,0,9,2.353,10.038,5.054,2.12,5.531,3.381,2.779,2.7-5.884-.594-7.5-1.219-10.19-3.106-10.188h0a5.352,5.352,0,0,0-2.351.822c-4.529,2.474-13.495,10.7-12.615,11.572.452.449,1.607.169,2.566-.619a4.366,4.366,0,0,1,2.766-.756ZM916.07,1456.53c-.679,1.089,5.689,15.835,6.838,15.835.255,0,3.506-1.383,7.226-3.073,7.979-3.625,7.978-6.224,0-2.829a61.825,61.825,0,0,1-5.951,2.326c-.265,0-2.027-3.033-3.917-6.741-1.653-3.244-3.305-5.55-3.973-5.626a.22.22,0,0,0-.034,0A.212.212,0,0,0,916.07,1456.53Zm-212.42-15.387c9.971,4.051,12.419,8.76,8.326,16.014-1.383,2.451-2.283,4.665-2,4.919.965.871,12.522,6.6,13.425,6.658.5.031.9-.487.9-1.152s-2.433-2.38-5.405-3.813c-5.394-2.6-6.9-5.208-3.719-6.421.927-.353,3.878.468,6.559,1.825,5.393,2.729,6.169,2.918,6.169,1.494,0-.535-2.3-2.228-5.1-3.761-6.549-3.579-6.281-3.273-4.614-5.265,1.228-1.468,2.153-1.3,6.476,1.149,5.55,3.149,6.844,3.474,6.844,1.719,0-1.646-11.918-7.46-13.814-6.738-.859.327-1.806-.334-2.1-1.469s-3.638-3.645-7.419-5.578l-6.877-3.514-4.106,4.668c-5.756,6.54-5.421,9.455,1.6,13.872,5.752,3.622,9.9,4.167,10.815,1.421.312-.942-.2-1.227-1.391-.773-2.355.9-12.727-4.994-12.727-7.229,0-2.865,5.146-8.119,7.654-8.119A1.377,1.377,0,0,1,703.651,1441.142Zm234.581,4.329c-7.9,3.974-9.307,5.847-7.455,9.946,4.082,9.034,6.558,10.243,13.662,6.673,8.584-4.313,9.824-7.444,5.62-14.194-1.879-3.017-3.3-4.458-5.349-4.55-.071,0-.143,0-.216,0C942.932,1443.342,940.995,1444.082,938.231,1445.472Zm-315.011-151.86c9.454,43.329,29.1,78.964,59.83,108.536,17.735,17.064,29.206,25.374,49.891,36.142,22.938,11.942,42.788,17.948,75.153,22.736,23.236,3.438,21.378,3.381,37.761,1.148,29.992-4.09,55.371-11.381,77.2-22.177,54.67-27.035,94.871-76.077,109.959-134.14,15.8-60.8,4.312-122.507-32.5-174.576-4.294-6.074-14.291-17.492-22.218-25.372-31.93-31.746-67.727-50.115-115.293-59.164-5.4-1.026-17.441-1.594-33.627-1.584h0c-21.447.013-27.256.423-38.831,2.737a217.388,217.388,0,0,0-78.263,32.075c-18.871,12.394-43.983,37.2-56.321,55.632a217.521,217.521,0,0,0-32.748,76.972c-2.3,10.54-2.7,15.421-2.729,37.407q.078-1.336.172-2.668c-.013,2.441-.019,5.1-.019,8.067,0,5.368.022,9.665.071,13.422q-.094-1.381-.168-2.761C620.712,1280.013,621.311,1284.863,623.221,1293.612ZM962.5,1431.165c-2.076.031-5.027,1.594-9.713,5.064-5,3.7-5.037,7.362-.147,12.888,4.294,4.853,5.756,4.768,13.958-.807,5.326-3.62,6.218-6.154,3.478-9.874-1.557-2.113-1.824-2.06-6.151,1.214-4.765,3.607-4.024,5.594.894,2.4,2.643-1.719,4.48-1.488,4.48.564,0,1.257-9.3,7.11-11.3,7.11s-6.718-5.515-6.718-7.863c0-2.178,8.352-7.629,11.689-7.629,3.12,0,3.64-1.778.834-2.847a3.443,3.443,0,0,0-1.244-.219Zm-276.652,6.1c.03,12.1,1.589,14.219,6.349,8.63,1.837-2.157,4.419-5.359,5.736-7.116,4.171-5.561.434-4.761-3.972.85-4.905,6.248-5.686,5.491-5.686-5.5,0-6.759-.21-7.244-4.975-11.521-5.047-4.531-7.248-6.633-9.2-6.638-1.72,0-3.245,1.626-6.353,4.664-3.242,3.169-5.895,6.146-5.895,6.619,0,1.561,10.853,9.715,11.741,8.822.479-.481-1.262-2.656-3.867-4.832-4.079-3.406-4.517-4.219-3.156-5.846,2.13-2.547,2.4-2.461,7.7,2.423l4.608,4.25-2.711,2.863c-1.491,1.576-2.3,3.269-1.791,3.763s3.289-1.784,6.186-5.061l5.265-5.957ZM975.3,1424.795c0,3.379-.172,3.478-6.006,3.478-3.3,0-6,.537-6,1.192s2.609,1.192,5.8,1.192c4.629,0,6.363.6,8.616,2.978,2.672,2.823,4.8,3.83,4.8,2.27a16.879,16.879,0,0,0-2.395-4.049c-1.916-2.669-2.243-4.438-1.638-8.823.476-3.453.3-5.485-.479-5.485C976.384,1417.547,975.3,1420.453,975.3,1424.795Zm-315.855.318c0,1.09,12.24-9.647,13.012-11.414a.6.6,0,0,0-.56-.918C670.549,1412.78,659.449,1423.775,659.449,1425.112Zm324.414-10.345c2.122,2.558,10.685,8.738,12.106,8.738.6,0,3.572-2.325,6.6-5.168,6.643-6.229,6.483-8.873-.907-14.919-2.893-2.367-4.742-3.349-5.374-3.218-.812.169.386,2.178,3.961,5.453,2.791,2.557,5.073,5.1,5.073,5.646s-2.119,3.051-4.707,5.56l-4.708,4.561-3.5-2.477a33.261,33.261,0,0,1-5.047-4.318,5.232,5.232,0,0,0-3.343-1.844C982.476,1412.78,982.454,1413.069,983.863,1414.767Zm-337.624-5.319c0,3.411,9.953,13.117,12.469,12.158,1.068-.407,1.942-1.218,1.942-1.8s-1.025-1.064-2.278-1.064c-2.2,0-9.732-7.333-9.732-9.47,0-1.523,7.11-7.214,9.013-7.214,2.712,0,9.087,8.581,8.271,11.131-.5,1.569-.225,2.1.9,1.726.9-.292,1.8-1.719,2.017-3.17.471-3.18-7.914-12.071-11.383-12.071C654.152,1399.672,646.238,1406.564,646.238,1409.448Zm362.244-24.917c-.744.249,1.262,2.283,4.46,4.52l5.813,4.067-5.213.805a88.327,88.327,0,0,1-9.57.894c-2.4.049-4.988.844-5.762,1.768-1.141,1.365-.117,2.6,5.453,6.556,6.746,4.793,8.875,5.747,8.868,3.979,0-.492-2.781-2.771-6.177-5.065l-6.175-4.172,11.19-1.192c6.154-.655,11.343-1.727,11.531-2.382.424-1.476-11.778-9.807-14.206-9.807h-.011A.689.689,0,0,0,1008.482,1384.532ZM637.325,1400.65c4.372,5.069,7.288,6.117,9.875,3.55,2.361-2.342,1.665-5.616-2.382-11.207-3.062-4.231-3.521-5.572-2.308-6.748,2.151-2.088,9.995,6.943,9.332,10.746-.536,3.083,2.143,3.726,3.279.786.865-2.237.449-3.056-4.946-9.723-2.594-3.207-4.715-4.839-6.578-4.978a3.317,3.317,0,0,0-.415-.006,4.111,4.111,0,0,0-2.71,1.35c-2.291,2.273-1.711,4.886,2.281,10.273,3.433,4.632,3.987,8.555,1.208,8.555-.633,0-2.832-2.012-4.885-4.47-2.63-3.149-3.536-5.26-3.067-7.149s.131-2.681-1.158-2.681C631.4,1388.947,632.756,1395.355,637.325,1400.65Zm374.275-19.772c-1.234,1.477-.443,2.465,4.831,6.034,5.582,3.776,9.312,5.356,9.312,3.946,0-.259-2.7-2.192-6.006-4.3s-6-4.081-6-4.4,3.985-.2,8.856.25c5.894.549,9.126.395,9.658-.46.44-.706-1.35-4.641-3.977-8.742s-4.624-7.609-4.438-7.794,3.463,1.033,7.28,2.708,7.077,2.888,7.247,2.7c1.944-2.194,7.794-15.843,6.914-16.134a17.3,17.3,0,0,1-3.359-1.973c-1.962-1.423-2.019-2-.57-5.617,2.576-6.434,3.624-7.275,8.04-6.453,2.206.41,3.98.243,3.98-.376,0-1.085-4.764-2.879-8.407-3.166a14.379,14.379,0,0,1-3.9-1.09,6.334,6.334,0,0,0-2.5-.5,3.882,3.882,0,0,0-1.319.2c-.944.36-5.055,7.418-9.134,15.682l-7.418,15.028,4.332,6.474a62.3,62.3,0,0,1,4.331,7.016c0,.3-3.66.241-8.133-.131-2.015-.168-3.6-.258-4.869-.258h-.019C1013.617,1379.532,1012.384,1379.941,1011.6,1380.878ZM618.015,1367.5c-2.182.93-2.119,1.032.68,1.108,4.085.111,9.411,8.814,7.375,12.049-1.094,1.738-.844,3.525.492,3.525a89.1,89.1,0,0,0,5.891-7.719c3.054-4.245,5.212-8.269,4.794-8.938-.454-.729-4.41-1.1-8.678-1.1h-.1C624.231,1366.417,619.707,1366.776,618.015,1367.5Zm-2.509-20.246c-3.12,3.939-5.42,7.413-5.114,7.717s4.429.911,9.16,1.347,8.4,1.12,8.147,1.52-3.208,1.781-6.571,3.073-6.116,2.825-6.116,3.407c0,1.351,4.021.345,11.177-2.795,3.1-1.361,5.638-2.88,5.638-3.374,0-2.013-3.109-3.757-6.7-3.757a46.87,46.87,0,0,1-7.555-.742l-3.742-.743,4.792-5.679c7.878-9.336,6.487-11.9-4.122-7.622-3.906,1.578-7.294,2.675-7.529,2.441s2.555-2.956,6.2-6.049c9.423-7.989,9.013-9.233-3.574-10.834-3.3-.42-6.95-1.024-8.106-1.34a3.639,3.639,0,0,0-.816-.133c-.753-.033-1.286.227-1.286.7,0,.629,1.284,1.463,2.853,1.854,3.849.958,6.383,9.774,3.666,12.753-1.966,2.156-1.134,5.862,1.317,5.862a32.9,32.9,0,0,0,7.177-2.384,56.185,56.185,0,0,1,6.184-2.384C620.915,1340.088,618.626,1343.311,615.506,1347.251Zm439.225-26.541c1.873,1.86-1.313,12.437-3.953,13.122-1.22.317-2.218,1.05-2.218,1.628,0,1.592,4.338,1.262,5.735-.436.674-.819,2.06-4.3,3.08-7.731,1.656-5.572,1.659-6.433.036-8.043-4.208-4.176-8.232-1.3-11.207,8.011-1.624,5.082-2.506,5.922-4.764,4.536-1.32-.809-1.262-1.973.336-6.625,1.065-3.1,2.892-6.339,4.059-7.185,1.893-1.374,1.773-2.513.5-2.555h0a5.013,5.013,0,0,0-2.361.7c-2.349,1.248-6.226,10.374-6.226,14.656,0,1.208,1.333,2.8,2.965,3.539,3.974,1.8,5.965.05,8.469-7.429,1.577-4.712,2.868-6.883,4.2-6.883A1.97,1.97,0,0,1,1054.731,1320.71ZM609.844,1300.8a45.657,45.657,0,0,0-6.842,1.216c-8.648,1.911-8.3,1.461-6.6,8.488,2.389,9.879,2.824,10.518,7.149,10.518a27.877,27.877,0,0,0,7.581-1.276c4.788-1.656,5.23-3.1,3.605-11.773-.971-5.182-1.419-7.075-4.287-7.176-.084,0-.169,0-.257,0C610.08,1300.792,609.964,1300.8,609.844,1300.8Zm441.964-18.849,3.25,3.365-4.269,3.491c-3.806,3.112-4.452,4.5-5.944,12.789-.92,5.113-1.674,9.83-1.681,10.48s2.694,1.806,6,2.567c7.509,1.73,11.754,1.938,10.879.532-.37-.594-3.375-1.449-6.677-1.9-6.776-.924-7.756-1.829-6.664-6.148.814-3.219.958-3.229,12.97-.866,1.859.365,3.3.123,3.3-.556,0-1.41-2.1-2.076-9.865-3.121-5.591-.753-5.653-.809-4.993-4.568.4-2.255,2.374-5.347,4.855-7.589,3.5-3.166,4.857-3.675,8.3-3.121,5.525.89,5.442-1.677-.088-2.707a14.723,14.723,0,0,1-7.769-4.821c-1.966-2.222-3.863-4.039-4.213-4.039C1047.542,1275.737,1048.879,1278.916,1051.808,1281.95Zm-457.43,3.115c3.674,2.805,5.15,11.884,2.2,13.522-1.957,1.088-2.746,3.365-1.164,3.365.45,0,4.258-2.223,8.461-4.941,4.681-3.025,7.507-5.639,7.29-6.742-.2-1.042-3.865-2.975-8.694-4.591-4.969-1.663-7.927-2.53-9.175-2.625-.077-.005-.146-.009-.21-.009C592.107,1283.044,592.622,1283.724,594.378,1285.066Zm13.644-70.793c5.268,4.474,8.7,5.389,9.776,2.608.416-1.079-.481-1.9-2.575-2.369-8.887-1.97-9.4-7.893-.684-7.893,3.968,0,5.277-.458,5.277-1.849,0-1.112-.7-1.557-3.189-1.588-.827-.01-1.853.026-3.117.1-5.563.318-6.351.688-6.7,3.14-.379,2.662-.494,2.692-2.7.709-2.179-1.957-2.305-1.958-2.305-.013,0,1.54-.825,1.96-3.281,1.674-2.361-.276-3.4.2-3.691,1.7-.33,1.674.439,2.086,3.881,2.086,2.361,0,4.292-.578,4.292-1.284,0-.128.074-.189.211-.189C603.837,1211.1,605.761,1212.352,608.022,1214.273Zm439.114-26.139c3.964,1.777,3.233,4.184-1.278,4.2-7.068.029-9.481,1.165-8.5,4a18.077,18.077,0,0,1,.682,5.812c-.206,3.434.138,3.645,3.676,2.26,2.05-.8,2.033-1-.326-3.7-3.079-3.522-2.143-4.522,4.672-4.987,5.646-.386,7.488,1.242,4.9,4.332-2.082,2.489-.414,4.452,2.335,2.749,1.757-1.088,2-1.989,1.145-4.223-1.477-3.856-1.467-3.878,1.715-3.878,3.319,0,4.446-.885,3.674-2.882-.338-.874-1.993-1.25-4.134-.938-3.088.45-3.742.038-4.824-3.043-.938-2.669-2-3.564-4.24-3.564C1043.115,1184.275,1043.395,1186.457,1047.137,1188.134ZM608.194,1169c-.635.036-1.2.463-2.049,1.3a6.638,6.638,0,0,0,4.749,11.29c2.255,0,2.916.631,2.916,2.78a6.56,6.56,0,0,0,.8,3.574c1.3,1.289,4,.908,4-.563,0-.747-.945-2.121-2.1-3.053-1.529-1.234-1.692-1.866-.6-2.318.825-.341,1.5-1.917,1.5-3.5,0-3.393.225-3.441,4.9-1.043,3.364,1.726,5.91,1.52,5.91-.478,0-1.266-10.418-6.117-11.285-5.256a6.673,6.673,0,0,0-.725,3.5c0,3.818-2.152,3.521-2.622-.361a7.631,7.631,0,0,0-2.943-4.82,4.84,4.84,0,0,0-2.369-1.058Zm433.16-12.571c0,1.609-1.9,3.011-6.71,4.948-6.184,2.49-6.652,2.944-5.968,5.8.409,1.7.927,4.169,1.152,5.48a26.184,26.184,0,0,0,.563,2.723c.085.187,1.351-.295,2.814-1.072l2.663-1.413-2.663-1.753c-1.463-.965-2.661-2.254-2.661-2.865s2.974-2.417,6.607-4.01c4.742-2.081,6.6-3.554,6.6-5.217a3.539,3.539,0,0,1,2.468-3.1c3.475-1.094,2.219-3.51-1.967-3.783a62.9,62.9,0,0,1-7.236-1,5.388,5.388,0,0,0-.787-.1c-.265-.014-.547-.014-.844,0-4.451.208-12.05,3.428-12.05,5.453,0,2.31,2.369,2.37,6.212.157a18.224,18.224,0,0,1,8.414-2.782C1040.04,1153.9,1041.355,1154.738,1041.355,1156.431Zm-415.029-25.865c-2.251.462-8.831,14.592-8.878,19.067-.038,3.6,2.733,6.937,5.763,6.937,1.284,0,2.536-1.625,3.428-4.454.773-2.45,1.01-4.728.526-5.064-5.994-4.169-6.577-4.832-5.333-6.066.946-.94,1.545-.943,2.124-.011,1.371,2.2,5.264,1.43,6.11-1.212.762-2.382,1.026-2.293,5.236,1.786,4.816,4.667,6.7,5.275,7.768,2.509.38-.984.084-1.788-.656-1.788s-4.244-2.718-7.786-6.042c-3.32-3.116-6.812-5.55-8.079-5.669a.838.838,0,0,0-.092,0A.647.647,0,0,0,626.325,1130.566Zm397.006-6.869c-2.683.065-5.738,1.174-9.3,3.313-4.474,2.687-5.025,5.987-1.5,8.981,1.32,1.122,2.4,2.9,2.4,3.961a4.511,4.511,0,0,0,.781,2.7c.978.97,4.016-3,3.244-4.24a2.932,2.932,0,0,0-2.254-.907,4.09,4.09,0,0,1-2.892-2.233c-1.386-2.569.359-4.532,6.991-7.867,3.16-1.59,4.7-1.764,6.883-.776,2.339,1.057,2.69,1.881,2.086,4.882-.8,3.981.016,4.534,2.729,1.841,1.579-1.566,1.535-2.11-.385-4.709-2.439-3.3-5.2-4.945-8.531-4.945C1023.5,1123.694,1023.416,1123.7,1023.331,1123.7Zm-14.806-18.885c.608,1.574-.666,3.4-4.971,7.1-3.422,2.945-5.443,5.542-4.941,6.348.951,1.527,3.095,1.849,3.138.471.016-.492,2.173-2.469,4.793-4.394,6.124-4.5,6.99-7.2,3.488-10.9-1.8-1.9-3.529-2.812-5.558-2.7s-4.362,1.239-7.377,3.406c-5.446,3.914-5.89,4.912-3.183,7.142,1.453,1.2,1.8,1.167,1.811-.152.007-.9,1.76-2.812,3.9-4.251,3.591-2.412,5.738-3.543,7.083-3.543C1007.611,1103.338,1008.152,1103.844,1008.526,1104.812Zm-362.355-5.2a2.317,2.317,0,0,0-1.486.835c-1.135,1.138-.971,1.723.752,2.688,1.546.866,1.993,2.058,1.5,4s.226,3.866,2.408,6.438c3.223,3.8,4.674,4.441,5.837,2.576.374-.6-.99-2.749-3.03-4.774-7.006-6.952-1.825-9.639,6.03-3.127,2.8,2.323,5.554,4.224,6.113,4.224,1.718,0,2.873-2.808,1.36-3.308a39.581,39.581,0,0,1-6.432-4.623c-3.372-2.8-5.8-3.946-7.432-3.522a5.131,5.131,0,0,1-4.041-.7,2.494,2.494,0,0,0-1.522-.713Zm360.372-4.435c-1.22,1.459-.983,1.958,1.354,2.853a18.047,18.047,0,0,1,5.463,3.893c2.54,2.712,2.774,3.2,2.774,5.788,0,1.727,1.095,1.469,3.378-.8,1.39-1.38,1.568-2.135.576-2.463-2.922-.966-7.77-5.484-8.817-8.216-.7-1.829-1.447-2.729-2.337-2.718h0C1008.241,1093.523,1007.459,1094.08,1006.542,1095.177Zm-334.648-19.324c-2.019.07-4.1,1.711-5.253,4.481-1.235,2.958-1.157,4.009.487,6.5a20.239,20.239,0,0,0,5.246,5.009c1.808,1.121,3.5,2.189,3.758,2.372s-.177,1.107-.969,2.055c-1.124,1.343-1.11,2.252.068,4.123,2.063,3.279,3.742,1.9,2.809-2.313-.672-3.036-.248-3.75,3.541-5.968,4.709-2.757,6.611-7.242,4.263-10.05-1.143-1.366-1.884-1.466-3.15-.424-1.4,1.151-1.362,1.577.224,2.728,2.262,1.641,1.232,5.1-1.8,6.054a10.054,10.054,0,0,1-5.365-.548c-3.063-1.155-3.133-1.356-1.359-3.87,2.348-3.325,2.4-7.351.128-9.225a3.862,3.862,0,0,0-2.488-.923Zm316.067-.686c-.809.042-1.718.745-3.157,2.266-2.784,2.94-2.809,3.125-.675,4.673,2.94,2.133,1.962,3.382-4.585,5.863-5.47,2.073-7.076,4.895-3.55,6.237a7.033,7.033,0,0,1,3.036,3.7c.628,1.64,1.279,2.773,1.45,2.518s1.022-1.393,1.9-2.528c1.4-1.816,1.176-2.231-1.842-3.425l-3.433-1.359,6.6-2.937a64.556,64.556,0,0,0,7.207-3.53c.331-.326-.731-1.666-2.359-2.975l-2.962-2.381,2.753-2.061c2.32-1.736,2.487-2.278,1.054-3.458a2.165,2.165,0,0,0-1.365-.608C988.013,1075.165,987.987,1075.165,987.962,1075.167Zm-26.615-16.6c-1.772,1.152-7.727,15.9-6.935,17.168,1.04,1.668,2.252,1.108,3.492-1.617,1.727-3.794,4-4,5.352-.472,1.4,3.641,3.121,3.982,3.964.781.446-1.693-.306-2.669-2.863-3.72-4.869-2-4.311-3.52,1.294-3.52,5.878,0,8.145-2.966,5.322-6.965-1.131-1.6-3.54-2.543-5.856-2.59h0l-.183,0A6.629,6.629,0,0,0,961.347,1058.571Zm-258.038,8.875c1.2,7.164,1.4,7.424,4.711,6.162,1.413-.538,1.588-1.142.657-2.255-.7-.836-1.689-3.858-2.2-6.713-.768-4.308-1.353-5.148-3.433-4.93a2.654,2.654,0,0,1-3.125-2.086,2.672,2.672,0,0,0-2.576-2.245c-1.608-.053-3.73,1.047-5.845,3.237-2.5,2.594-2.9,3.659-1.787,4.767,2.327,2.308,3.676,1.643,2.9-1.427-1.045-4.133,2.507-5.187,4.3-1.276.937,2.04,2.02,2.768,3.454,2.316a2.616,2.616,0,0,1,.776-.142C702.254,1062.853,702.74,1064.026,703.309,1067.446Zm218.5-17.44c3.7.923,3.756,1.393.524,4.806-2.545,2.69-2.247,5.231.613,5.231.849,0,2.533,1.085,3.743,2.412,2.251,2.468,4.116,1.486,4.159-2.189.01-.86-.927-1.469-2.083-1.352-5.154.52-5.552-.063-2.326-3.405,3.971-4.112,3.988-4.551.224-5.488-4.1-1.021-3.8-3.085.453-3.085,4.6,0,7.127-2.944,5.179-6.039a10.736,10.736,0,0,1-1.429-2.883c0-1.327,2.933-.5,5.082,1.425,1.958,1.758,2.423,1.8,3.379.3,1.742-2.732,1.364-3.527-1.677-3.527-4.087,0-10.752-2.5-12.467-4.678-.654-.83-1.057-1.246-1.432-1.259s-.719.38-1.252,1.17c-1.935,2.869-1.469,3.575,2.361,3.575,4.589,0,4.622,1.479.068,3.184-2.527.947-3.832,2.466-4.576,5.327-.71,2.734-1.839,4.118-3.569,4.369-2.691.391-4.535,3.293-2.777,4.371.579.356,1.884-.179,2.9-1.188a4.464,4.464,0,0,1,3.252-1.289A6.809,6.809,0,0,1,921.807,1050.006ZM718.222,1040.2a2.292,2.292,0,0,0-1.57.752c-1.014,1.017-.836,1.657.7,2.517,1.694.949,1.824,1.664.733,4.042-1.1,2.4-.775,4.009,1.932,9.5,3.468,7.034,4.32,7.649,6.685,4.821,1-1.2,1.059-1.787.171-1.787-1.914,0-6.386-9.253-5.947-12.307.619-4.311,3.784-2.921,7.062,3.1,3.857,7.085,4.931,8.165,6.914,6.948,1.23-.754.91-1.939-1.458-5.4a36.615,36.615,0,0,1-3.767-6.727c-.4-1.26-2.183-2.594-3.956-2.963a24.223,24.223,0,0,1-5.466-1.888,4.168,4.168,0,0,0-1.94-.607C718.284,1040.2,718.252,1040.2,718.222,1040.2Zm35.584,4.964c.588,3.109,1.341,4.156,2.765,3.844a1.781,1.781,0,0,0,1.476-2.145c-.264-.944-.738-3.239-1.052-5.1-.528-3.114-.888-3.323-4.56-2.639-3.265.608-4.231.289-5.338-1.763-2.124-3.94,3.119-10.815,5.425-7.112,1.158,1.859,4.2,1.4,4.2-.633,0-1.616-.967-2.462-2.646-2.5a12.084,12.084,0,0,0-5.088,1.392c-4.647,2.189-6.247,5.679-4.952,10.8.707,2.794,1.191,3.027,4.872,2.341a15.47,15.47,0,0,1,2.527-.344C753,1041.308,753.247,1042.208,753.806,1045.164Zm134.425-8.955c-.729,7.2-.582,8.342,1.079,8.342,1.224,0,1.924-1.03,1.924-2.831,0-7.8,2.95-13.666,3.818-7.6.314,2.2,1.144,2.682,4.572,2.682,3.143,0,4.295-.559,4.621-2.241.564-2.908-1.732-4.273-7.226-4.3-3.505-.015-4.612-.575-5.339-2.7a10.549,10.549,0,0,1-.629-4.17c.177-.921.01-1.4-.487-1.438a1.079,1.079,0,0,0-.234.009c-1.123.157-3.427,1.887-6.791,5.131-5.37,5.179-7.6,9.884-6.284,13.277,1.2,3.111,2.83,1.947,3.565-2.551.682-4.177,4.829-9.96,7.141-9.96C888.62,1027.866,888.73,1031.277,888.231,1036.209Zm-99.733-9.586c1.155,0,1.855,2,1.855,5.812,0,3.168.311,6.069.691,6.446.852.845,7.751-1.037,9.25-2.524,2.238-2.221.315-5.521-3.082-5.287-2.853.2-3.255-.207-3.255-3.276,0-3.8,1.151-4.3,4.766-2.057,2.759,1.709,4,.885,2.916-1.931-.589-1.522-1.63-1.835-4.232-1.268-3.1.676-3.45.443-3.45-2.322,0-2.182-.637-3.073-2.194-3.073-1.745,0-2.088.718-1.676,3.509.463,3.128.092,3.619-3.414,4.52-2.844.731-3.988,1.741-4.13,3.641-.244,3.276,1.3,3.392,3.285.246,1.03-1.638,1.941-2.435,2.67-2.435Zm61.67-9.78c-4.419,5.107-3.372,9.833,2.182,9.833,3.2,0,3.295.283,1.764,5.578-.6,2.077-.78,4.084-.4,4.46,1.26,1.251,3.892.71,3.906-.8a58.222,58.222,0,0,1,.742-5.867c.689-4.133.537-4.4-2.716-4.766-4.221-.479-5.539-5.3-2.127-7.772,2.7-1.962,4.249-1.989,4-.068-.481,3.67.28,4.469,4.251,4.469,4.672,0,7.629-3.317,5.151-5.777-.992-.984-3.888-1.439-7.018-1.439h-.056C855.791,1014.7,851.361,1015.466,850.168,1016.843Zm-30.764-5.532a8.418,8.418,0,0,0-1.924.593c-1.04.4-1.59,1.208-1.219,1.8s.87,5.231,1.1,10.3.471,9.891.521,10.71c.093,1.556,2.74,2.037,4.05.737.417-.414.236-1.719-.4-2.9a6.271,6.271,0,0,1,.012-5.207c.778-2.032.764-3.056-.042-3.056s-.767-.825.074-2.384a4.71,4.71,0,0,1,3.645-2.384c2.07,0,2.363.842,2.378,6.852.018,6.951,1.257,10.663,3.166,9.493,1.716-1.052.869-16.512-.972-17.739-.886-.591-3.368-.822-5.514-.512-3.647.528-3.9.335-3.9-2.935,0-2.5-.032-3.378-.866-3.378C819.477,1011.306,819.441,1011.308,819.4,1011.311ZM779.784,1484.3a20.293,20.293,0,0,1-4.4-1.369c-.243-.241.144-2.977.859-6.08l1.3-5.64,4.905.742c8.175,1.236,9.462,2.348,8.515,7.36a26.76,26.76,0,0,1-1.387,5.26c-.313.5-1.275.75-2.745.75A32.921,32.921,0,0,1,779.784,1484.3Zm121.029-11.415c-2.131-5.56-1.449-7.3,3.657-9.325,2.923-1.161,4.829-1.773,6.225-1.755,1.795.022,2.745,1.084,3.927,3.354,2.771,5.316,2.279,6.773-2.995,8.867-3.044,1.208-5.245,1.827-6.872,1.827C902.717,1475.849,901.578,1474.878,900.813,1472.882Zm-158.8-3.39c-4.092-1.441-4.146-2.482-.261-5.007a6.915,6.915,0,0,1,2.987-1.375c1.084-.014,1.282,1.272.963,4.114-.234,2.079-.424,2.872-1.378,2.872A8.248,8.248,0,0,1,742.014,1469.492Zm192.516-12.5c-1.845-3.587-2.057-4.915-.926-5.809,2.6-2.053,9.1-5.033,10.984-5.033,2.187,0,5.933,6.683,5.04,8.992-.635,1.642-9.217,6.5-11.482,6.5C937.472,1461.64,935.845,1459.546,934.53,1456.989Zm-103.2.386c0-2.894.239-2.979,8.406-2.979,4.623,0,8.408.276,8.408.614,0,1.706-8.369,5.337-12.31,5.341C831.835,1460.35,831.335,1460.024,831.335,1457.374Zm-13.811.031-4.8-2.935,7.506-.036c.9,0,1.7-.007,2.395,0,4.889.037,5.111.437,5.111,2.942,0,1.982-.949,2.972-2.706,2.972S820.732,1459.366,817.524,1457.405Zm36.1-1.184a10.084,10.084,0,0,1,5.333-1.7c2.645.047,2.5.245-1.2,1.659a22.731,22.731,0,0,1-5.244,1.62C851.846,1457.8,852.219,1457.274,853.624,1456.221Zm-48.71-.039c-3.914-1.5-3.987-1.611-1.048-1.7a6.573,6.573,0,0,1,4.651,1.7c.87,1.041,1.33,1.561.893,1.561A27.349,27.349,0,0,1,804.913,1456.182Zm79.865-9.853c3.3-2.667,7.626-6.214,9.607-7.882,3.13-2.635,4.756-3.039,12.381-3.075,4.828-.024,8.5.407,8.155.955-1.4,2.245-26.018,13.537-30.894,14.169l-5.255.682Zm-80.83-2.167c-2.772-3.712-5.04-7.235-5.04-7.83,0-.452,3.505-.75,8.582-.792,1.692-.014,3.56,0,5.53.047l14.11.336v14.3l-9.071.344-9.071.343Zm55.427,6.658h-.193l4.991-7.667,4.992-7.668,10.656-.08c12.55-.092,12.516.259-.926,9.626-7.108,4.953-9.127,5.788-14.009,5.788h-3.767l-1.794.077Zm-16.325,0c-7.885,0-10.752-.42-11.225-1.642-.349-.9-.466-4.253-.261-7.447l.371-5.808,16.055-.332c3.418-.072,6.179-.147,8.357-.152,9.439-.027,7.957,1.207,1.806,9.382l-4.513,6Zm-45.193,0c-4.969,0-6.94-.811-14.082-5.788-13.377-9.321-13.428-9.7-1.319-9.7h10.262l5.457,7.745,5.457,7.746Zm-18.206-.051c-1.628-.027-6-1.3-9.707-2.832s-10.467-4.859-15.013-7.4l-8.265-4.616,8.851-.354,8.849-.353,7.363,6.216c10.252,8.654,11.225,9.359,9.062,9.359C780.474,1450.792,780.086,1450.777,779.651,1450.769Zm-21.362-2.415a16.78,16.78,0,0,1-3.815-1.39c-1.652-.72-7.6-3.466-13.21-6.1-8.613-4.042-9.706-4.861-7-5.234a4.055,4.055,0,0,1,.449-.034c2.366-.042,6.523,1.818,13.954,6.217,7.244,4.288,10.532,6.543,9.619,6.543Zm153.845-4.711c-.514-.015,2.039-1.879,5.671-4.143,4.517-2.815,7.663-4.274,8.953-4.193a.781.781,0,0,1,.493.173.115.115,0,0,1,.084.105.629.629,0,0,1,.077.322c0,.7-13.888,7.736-15.267,7.736Zm18.341-12.854c15.6-13.174,16.3-13.633,20.99-13.86.656-.031,1.282-.042,1.853-.035h0c1.71.02,2.911.2,2.911.48-.023,1.737-20.889,14.378-23.732,14.378C930.747,1431.753,929.843,1431.323,930.474,1430.79Zm-18.987.964H900.9l6.122-7.3,6.121-7.3,13.137-.149c7.225-.083,13,.226,12.838.686s-4.068,3.81-8.675,7.447l-8.375,6.613Zm-28.58,0H871.069l3.445-7.228,3.445-7.228.135,0,.011-.023,1.245,0,13.127-.2c2-.03,3.9-.037,5.637-.022,5.206.042,8.882.271,8.882.6,0,.439-2.758,3.792-6.127,7.449l-6.125,6.65Zm-71.166,0H795.635l-3.167-7c-1.741-3.85-3.166-7.2-3.166-7.449,0-.184,4.786-.285,11.569-.27,2.261,0,4.745.023,7.345.055l18.915.23.358,7.217.358,7.218Zm-43.709,0-6.179-6.483c-3.4-3.565-6.176-6.916-6.176-7.448s6.474-.965,14.385-.965h14.386l3.027,6.931c1.666,3.812,3.028,7.163,3.028,7.447s-5.056.518-11.235.518Zm-16.747,0H740.422l-8.588-6.741c-4.722-3.707-8.585-7.06-8.584-7.449,0-.291,3.346-.5,8.086-.559,1.58-.018,3.315-.019,5.133,0,13.084.147,13.245.185,15.813,3.575,1.427,1.884,4.23,5.169,6.231,7.3l3.638,3.874Zm-23.294-.057c-4.5-.048-6.918-1.135-15.251-6.851-5.448-3.738-9.905-7.065-9.906-7.393s2.914-.563,6.476-.525c2.433.027,3.878-.029,5.5.54h.011l.014.009c2.925,1.034,6.448,4.1,17.358,13.313.6.511-1.131.909-3.89.909Zm103.848-1.551c-.356-.921-.48-4.182-.275-7.247l.372-5.574,20.716-.233c2.848-.032,5.568-.047,8.042-.044h0c7.424.006,12.654.159,12.637.4a76.617,76.617,0,0,1-3.3,7.151l-3.265,6.554-17.139.331c-3.133.06-5.732.094-7.886.094C834.387,1431.581,832.244,1431.191,831.839,1430.145ZM675.163,1425.4c-3.585-3.67-4.155-6.657-1.273-6.657.6,0,3.011,1.674,5.359,3.72,3.371,2.936,3.98,4.065,2.9,5.362-.785.938-1.348,1.466-2.03,1.466C679.1,1429.287,677.824,1428.12,675.163,1425.4Zm276.037-12.71h-.188l2.889-3.278c9.9-11.239,9.578-11.023,16.644-11.023h6.632l-2.148,2.155c-.393.4-.846.857-1.341,1.346l-3.639,3.651c-6.807,6.826-7.4,7.15-13.083,7.15h-4.237l-1.577.055Zm-20.435,0c-7.789,0-14.162-.257-14.162-.573a62.174,62.174,0,0,1,4.239-7.151l4.241-6.578h.238l.037-.057,5.371.057h10.677c2.3,0,4.309-.01,6.037-.01,12.094,0,10.576.552,2.3,9.246l-4.821,5.065Zm-48.513-7.15,2.524-7.151h35.707l-2.146,3.278c-1.179,1.8-3.268,5.013-4.642,7.135l-2.5,3.859-15.735.015-15.734.015Zm-28.81,7.15H831.335v-14.3h49.081l-2.433,7.151-2.434,7.15Zm-46.017,0H787.119l-2.434-7.15-2.433-7.151h45.478v14.3Zm-40.219-.015-15.735-.017-2.5-3.858c-1.373-2.122-3.463-5.332-4.642-7.134l-2.144-3.278h35.7l2.524,7.151,2.526,7.15Zm-35.355.015H717.484l-6.315-6.852-6.313-6.853,16.068-.335c3.37-.07,6.068-.143,8.267-.147,9.528-.02,9.682,1.252,14.491,9.718l2.539,4.47Zm-28-.052c-7.609-.052-7.642-.068-15.432-7.132v0l-7.806-7.079,7.226-.016q1-.007,2.142-.006h.632l8.376-.017,6.243,7.15,6.242,7.151Zm127.482-14.249h0Zm136.009-4.766c.165-.328,2.4-3.68,4.975-7.449l4.673-6.851h8.279c9.463,0,9.471.063,1.257,9.363-4.439,5.026-4.826,5.2-12.036,5.363-.7.016-1.381.024-2.02.024C969.39,1394.07,967.206,1393.891,967.343,1393.62Zm-135.769-6.829.361-6.875.3,0v0l.279,0,26.142-.314c3.674-.044,7.18-.06,10.373-.051,9.578.025,16.335.269,16.324.648-.013.5-.723,3.6-1.578,6.875l-1.557,5.958-25.5.323-25.5.322Zm113.132,6.829H927.378l3.637-7.151,3.638-7.149h18.668c14.594,0,18.481.325,17.807,1.49-.474.819-2.713,4.036-4.977,7.149l-4.114,5.661Zm-39.761,0c-10.1,0-18.356-.4-18.342-.894s.723-3.576,1.578-6.853l1.556-5.957,20.039-.327c2.755-.045,5.385-.072,7.781-.08,7.185-.027,12.258.1,12.258.351a66.621,66.621,0,0,1-3.252,7.179l-3.253,6.581Zm-100.669,0c-17.72,0-23.568-.365-23.913-1.49-.252-.82-1.044-3.313-1.763-5.54-2.156-6.684-3.353-7.238,14.864-7.272,2.6,0,5.6,0,9.05,0h25.219v14.3Zm-64.915,0-3.253-6.581a69.35,69.35,0,0,1-3.253-7.15c0-.313,8.879-.569,19.731-.569h19.73l1.888,6.439c1.038,3.542,1.886,6.759,1.886,7.15s-8.264.711-18.364.711Zm-21.438,0h-17.37l-2.9-3.873c-1.6-2.13-3.848-5.349-5-7.151l-2.1-3.276h37.471l3.638,7.149,3.637,7.151Zm-31.709,0H676.6l-5.5-6.385a59.453,59.453,0,0,1-5.44-6.974l-.126-.157.068-.01v-.009c0-.42,4.575-.765,10.167-.765,9.322,0,10.284.223,11.583,2.681a62.618,62.618,0,0,0,4.948,7.149l3.529,4.47ZM938.9,1368.4c1.609-4.072,2.926-7.571,2.926-7.775s9.187-.368,20.416-.368,20.411.4,20.411.893-1.792,3.843-3.976,7.448l-3.973,6.554-19.364.327-19.365.328Zm-250.223,7.347h-.092l-2.321-3.277c-2.477-3.495-6.248-10.473-6.248-11.56,0-.36,9.112-.655,20.25-.655h20.249l2.568,6.661a53.525,53.525,0,0,1,2.569,7.746c0,.606-8.186,1.086-18.535,1.086H691.3l-2.6.04Zm299.827,0c-4.536,0-8.247-.334-8.247-.742a60.071,60.071,0,0,1,3.88-7.747l3.879-7h18.937l-2.142,3.276c-7.444,11.385-7.419,12.242-12.839,12.242C991.01,1375.771,989.877,1375.745,988.5,1375.745Zm-77.02,0h-20.4l.828-3.872c.455-2.13,1.135-5.616,1.508-7.747l.68-3.871h21.461c12.109,0,21.459.473,21.459,1.086a53.547,53.547,0,0,1-2.568,7.745l-2.569,6.66Zm-52.01,0c-21.831,0-27.134-.314-27.648-1.641-.349-.9-.466-4.255-.261-7.449l.371-5.806,29.153-.32,29.151-.319-.75,3.3c-.412,1.815-1.256,5.309-1.875,7.767l-1.127,4.469Zm-108.42,0c-15.153,0-20.5-.381-20.945-1.49-.331-.819-1.737-4.316-3.123-7.772l-2.523-6.283,21.826.324,21.825.325.8,2.979c.439,1.639,1.18,4.99,1.641,7.448l.841,4.47Zm-88.964,0-4.848-7.085c-2.667-3.9-4.85-7.382-4.85-7.745s5-.655,11.109-.648l9.47.013,1.485-.011.006.013h.147l3.9,7.051a64.958,64.958,0,0,1,3.9,7.732c0,.375-4.575.681-10.165.681Zm-34.873-2.942c-1.906-4.149-1.93-4.113,2.809-4.113,4.77,0,5.054.679,1.869,4.468-1.375,1.634-2.117,2.471-2.713,2.471C628.553,1375.626,628.087,1374.7,627.216,1372.8Zm148.352,1.478c-.711-2.315-3.08-12.609-3.08-13.385,0-.283,6.918-.447,16.713-.436,3.266,0,6.853.025,10.61.069l27.321.321v14.3l-25.549.322c-4.431.056-8.163.086-11.291.086C779.421,1375.556,775.849,1375.191,775.568,1374.28Zm257.929-8.058c-.75-1.2,4.167-11.855,5.454-11.816h0a7.05,7.05,0,0,1,2.178,1.011c1.254.789,1.021,2.122-1.14,6.535-1.794,3.664-3.4,5.518-4.751,5.518A2.154,2.154,0,0,1,1033.5,1366.222Zm-7.063-3.346c-.911-1.462,4.4-10.848,6.142-10.86,2.8-.019,2.842,2.382.125,7.1-1.821,3.163-3.448,4.79-4.732,4.79A1.833,1.833,0,0,1,1026.434,1362.875Zm-26.982-6.2c-5.274,0-9.589-.2-9.589-.452s1.39-3.466,3.09-7.151l3.091-6.7h20.275l-3.637,7.15-3.638,7.151Zm-35.222,0H943.272l2.049-6.853,2.048-6.851,21.848-.324c3-.045,5.871-.071,8.482-.08,7.834-.028,13.365.1,13.365.343a71.545,71.545,0,0,1-2.938,7.176l-2.936,6.589Zm-265.707,0H677.661l-2.273-4.47a60.15,60.15,0,0,1-3.116-7.177l-.844-2.708,21.843.326,21.843.324,2.135,6.851,2.136,6.853Zm-37.115,0h-11.37l-3.616-6.258c-1.99-3.441-3.622-6.657-3.627-7.149s5.393-.894,12-.894,12.009.2,12.009.447,1.344,3.465,2.987,7.151l2.988,6.7Zm255.752,0c-18.908,0-22.171-.263-22.171-1.787a1.8,1.8,0,0,0-3-1.335,4.476,4.476,0,0,0-.325.38,1.765,1.765,0,0,0-.281.954c0,1.541-4.146,1.787-30.113,1.787H831.158l.306-5.723c.028-.516.042-1.036.045-1.548q0-.539-.009-1.024a12.793,12.793,0,0,0-.714-4.732,1.711,1.711,0,0,0-.626-.649,1.428,1.428,0,0,0-.414,0,1.263,1.263,0,0,0-.521.2c-.656.618-1.22,2.194-1.493,4.242a38.109,38.109,0,0,0-.119,4.274l0,.16.3,4.8H799.6c-24.367,0-28.314-.249-28.314-1.787a2.142,2.142,0,0,0-2.363-1.788c-1.608,0-2.144.573-1.674,1.788.6,1.549-2.272,1.787-21.544,1.787H723.47l-2.434-7.151-2.433-7.149h11.419c1.838,0,3.383-.007,4.678-.029,1.359-.043,2.551-.094,3.486-.146,2.721-.232,3.075-.756,2.853-1.911a2.1,2.1,0,0,0-.169-.53,1.113,1.113,0,0,1-.189-.246,1.459,1.459,0,0,0-.361-.387c-1.161-.807-4.031-1.051-11.242-1.262l-11.559-.339-1.8-7.078-1.8-7.077,17.558-.329c9.654-.181,14.082-.344,16.151-.885q.71-1.3,1.535-2.789c-1.061-.837-5.048-.881-17.715-.76l-18.414.174-.831-4.59a61.8,61.8,0,0,1-.9-7.27l-.069-2.681h46.486c1.777-3.118,3.749-6.575,5.938-10.419l-.032.017a14.057,14.057,0,0,0,.234-3.711c-.321-3.665-.032-4.3,1.81-3.988a4.937,4.937,0,0,0,2.574-.374l2.144-3.766a11.768,11.768,0,0,0-3.307-.4c-4,0-4.2-.2-4.2-4.17a8.756,8.756,0,0,0-.362-3.119,2.078,2.078,0,0,0-1.815-1.016c-.2-.016-.382-.026-.55-.027-1.617.093-1.785.853-1.244,4.162l.682,4.17H707.639v-4.17c0-2.913-.542-4.172-1.8-4.172-.794,0-1.3.5-1.571,1.6a18.233,18.233,0,0,0-.191,3.145v3.3h-.04v.293H654.8v-.293h-.018v-7.7h.018v-.345h20.52l0,0-.116-.547H732l.124.551h14.7l-.02-.551h45.133a20.159,20.159,0,0,0,3.673.179c2.808-.09,11.187-.043,18.616.1l2.644.054a29.558,29.558,0,0,1,5.875.192c3.9.219,4.753.64,4.937,1.8a7.9,7.9,0,0,1,.707.564c1.387,1.245,2,1.665,3.1,1.147-.019-.488-.052-.976-.1-1.4-.141-1.372.608-1.869,6.055-2.127a11.974,11.974,0,0,1,2.032-.382,4.392,4.392,0,0,0,1.42.137c.563-.057,1.116-.127,1.659-.217.911.038,1.919.117,3.042.241,7.742-.137,16.308-.137,19.125,0a12.533,12.533,0,0,0,4.084-.292h43.462l-.079.55h7.606a27.933,27.933,0,0,0,6.756-.55h57.19c1.275.464,4.456.55,11.388.55,11.757,0,12.738.177,12.738,2.286,0,6.106.21,6.055-25.348,6.055H958.638v-4.17c0-2.66-.452-3.94-1.487-4.143a1.673,1.673,0,0,0-.337.007,1.648,1.648,0,0,0-1.278.8,7.823,7.823,0,0,0-.5,3.331v4.17H903.395v-4.17a7.656,7.656,0,0,0-.519-3.366,1.641,1.641,0,0,0-1.255-.77,1.508,1.508,0,0,0-.386,0c-1,.231-1.444,1.513-1.444,4.134,0,4.149-.029,4.17-5.4,4.17a21.585,21.585,0,0,0-3.543.263l2.361,4.176a8,8,0,0,0,2.545.123c3.281-.39,3.293-.366,2.983,6.384-.051,1.109-.105,2.113-.14,3.022l4.455,7.878c3.832.872,10.809.8,23.36.8H951.74l-.8,5.974a55.667,55.667,0,0,1-1.367,7.447c-.428,1.111-5.484,1.388-20.446,1.121-4.047-.072-7.267-.128-9.818-.151h-3.934c-1.407.018-2.465.064-3.25.144v-.009a5.557,5.557,0,0,0-1.538-1.979l3.458,6.118c2.5.363,7.018.4,15.81.4,10.561,0,17.972.467,17.972,1.133a72.366,72.366,0,0,1-1.3,7.149l-1.3,6.017H932.874l-.461,0-8.4.082c-2.5.1-3.759.3-4.39.714v3.185c1.063.71,3.906.781,11.393.781,6.6,0,12.009.439,12.009.975a61.287,61.287,0,0,1-1.847,7.151l-1.848,6.174Zm-115.642-78.117a124.533,124.533,0,0,1-18.616,2.389c-3.734.01-7.36.412-8.057.894s-3.755,5.19-6.795,10.463c-9.259,16.054-22.563,40.093-22.563,40.767,0,1.071,17.871-.8,31.826-3.336,20-3.63,33.5-4.245,41.649-1.9,8.259,2.383,8.864,2.4,7.053.239a10.47,10.47,0,0,0-4.937-2.475c-1.929-.421-3.849-1.317-4.27-1.992-.466-.749.113-.968,1.487-.562,9.5,2.812,11.3,2.224,4.954-1.615-4.266-2.582-3.97-3.017.822-1.208,4.414,1.666,3.923-.67-.633-3.007-4.387-2.252-4.005-3.51.546-1.794,4.236,1.6,4.141-.5-.134-2.94l-3.3-1.887,3.3.681c4.49.924,4.166-.871-.6-3.328l-3.9-2.012,3.9.7c2.146.384,3.9.218,3.9-.371s-1.757-1.976-3.9-3.083l-3.9-2.012,3.9.7c4.911.879,4.982-.067.189-2.527-4.388-2.252-4.006-3.51.545-1.794,3.911,1.476,4.18-.249.467-2.985l-2.7-1.99,2.7.619c3.665.842,3.4-.533-.6-3.133l-3.3-2.146,3.3.7c4.009.851,4.186-.026.6-2.964l-2.7-2.215,2.7.673c1.486.371,2.7.294,2.7-.169s-1.216-1.9-2.7-3.184l-2.7-2.344,2.7,1.3c2.905,1.4,3.611.212,1.26-2.12-.917-.911-3.085-1.358-6.36-1.346a84.379,84.379,0,0,0-13.532,1.5l-.134.089q.05-.043.1-.083Q803.742,1278.115,801.518,1278.561Zm100.649,53.747c.072.114.146.229.221.349,7.87.929,12.653.831,11.836-.481-.408-.656-2.736-1.224-5.175-1.262a54.965,54.965,0,0,1-9.237-1.146c-3.8-.853-2.987-.949,3.9-.456,5.285.378,8.706.168,8.706-.538,0-.64-4.188-1.509-9.307-1.931-13.468-1.111-14.207-1.524-3-1.68,6.359-.089,9.909-.611,9.909-1.458,0-.725-.7-1.053-1.555-.727s-4.772.185-8.707-.312l-7.153-.9,7.506-.157c10.456-.217,9.47-2.489-1.2-2.759-8.005-.2-8.175-.256-2.1-.664,9.377-.629,10.585-2.641,1.74-2.9-5.967-.174-6.3-.284-2.041-.665,2.807-.251,5.1-.961,5.1-1.578s-2.3-1.217-5.1-1.332l-5.1-.208,5.406-.592c5.068-.553,4.767-.679-4.8-2.013l-10.208-1.424,9.007-.351c4.954-.194,7.251-.57,5.1-.834-4.49-.553-5.176-2.3-1.2-3.063,1.486-.285.405-.59-2.4-.679s-5.1-.733-5.1-1.429.944-1.17,2.1-1.054a16.571,16.571,0,0,0,3.9-.125c.991-.185-1.442-.694-5.406-1.13l-7.2-.791,6.907-.2c3.8-.11,6.9-.736,6.9-1.391s-3.107-1.282-6.9-1.392c-5.61-.162-6-.29-2.1-.675,6.992-.692,8.216-2.675,1.74-2.819a36.192,36.192,0,0,1-8.347-1.112q-3-.994,3.149-.344c3.894.411,6.455.165,6.978-.674.56-.9-.992-1.327-4.851-1.327-3.121,0-5.271-.4-4.775-.893a4.174,4.174,0,0,1,2-1.043c4.693-.635,4.571-.92-.7-1.637l-6-.817,5.7-.188c8.317-.273,7.014-2.57-1.459-2.57a133.452,133.452,0,0,1-19.515-2.379c-7.769-1.5-13.253-2.253-17.177-2.3a18.646,18.646,0,0,0-4.848.462l-.043.038h-.1a8.077,8.077,0,0,0-1.676.65c-1.063.564-1.641,1.228-1.955,4.461h0s0,0,0,0c-.331,3.409-.367,9.673-.367,21.682,0,13.8.49,25.214,1.1,25.587s2.632.033,4.5-.752c5.972-2.5,30.326-1.608,47.84,1.76,4.655.9,8.985,1.61,12.773,2.13-.035-.05-.069-.1-.1-.147l.044,0,.108.151.028,0c-.062-.072-.082-.1-.129-.155l.071,0c.055.093.063.107.09.155l.123.016-.1-.164.066,0c.019.054.038.109.057.162l.087.012-.09-.171h0l.2.014.056.028h0c0-.008-.007-.016-.007-.025l.134.009c.017.04.027.061.044.1-.058-.028-.114-.058-.172-.087.012.053.025.105.038.157l.174.024-.04-.093c.078.038.154.08.232.118q1.015.135,1.973.248a5.6,5.6,0,0,0-.451-.356C901.939,1332.294,902.029,1332.3,902.167,1332.307Zm-151.42-15.758c.319-.569.649-1.154.991-1.761C750.777,1315.511,750.282,1316.16,750.747,1316.549Zm124.277-39.026c1.631.19,3.113.342,4.349.443a7.574,7.574,0,0,0-1.443-.53c-.663-.062-1.308-.115-1.868-.153A4.173,4.173,0,0,0,875.024,1277.523Zm-21.72-3.375a7.123,7.123,0,0,0-2.546-.43Q851.964,1273.914,853.3,1274.148Zm180.254,75.487c-.935-1.5,3.66-11.931,5.256-11.931,2.5,0,2.586,2.537.27,7.732-1.6,3.587-2.9,5.332-4.035,5.332C1034.518,1350.768,1034.026,1350.386,1033.558,1349.635ZM652.544,1337.61c-6.611,0-12.277-.412-12.591-.916s-1.653-3.739-2.974-7.189l-2.4-6.273,12.691.338,12.692.336,1.449,4.172c3.066,8.831,4.254,9.561-3.294,9.561C656.62,1337.638,654.779,1337.61,652.544,1337.61Zm355.775,0c-5.526,0-10.049-.355-10.049-.789a69.693,69.693,0,0,1,2.022-7.15l2.02-6.361h10.59c5.824,0,10.588.464,10.588,1.032a45.464,45.464,0,0,1-2.562,7.151l-2.562,6.117Zm-37.158,0c-12.173,0-22.12-.4-22.108-.894s.724-3.574,1.579-6.851l1.556-5.959,23.041-.323c3.169-.044,6.193-.071,8.947-.08h0c8.262-.028,14.093.1,14.093.333,0,.317-1.12,3.546-2.488,7.176l-2.488,6.6Zm-302.573-1.49c-1.857-5.094-4.187-11.99-4.187-12.391,0-.017.041-.032.121-.047l-.04-.131,1.79.018c1.165-.039,2.832-.065,4.881-.078,4.167-.027,9.913,0,16.234.09l22.987.323,1.581,5.959c.869,3.277,1.6,6.36,1.632,6.851s-9.963.894-22.2.894C674.67,1337.61,668.995,1337.239,668.588,1336.12Zm-59.543-3.682c-1.365-3.562-1.6-4.608.3-4.684a19.292,19.292,0,0,1,2.661.19c4.99.578,5.169,1.294,1.238,4.959l-2.965,2.765Zm298.033-11.831c-.007-.013-.025-.045-.033-.056l.073.078Zm-.073-.174a.173.173,0,0,1-.01-.036c.008.011.028.043.037.056A.24.24,0,0,0,907,1320.433Zm-273.493-1.294h-.187l-1.875-6.633c-1.031-3.648-1.876-7.018-1.876-7.489,0-.353,3.245-.572,7.844-.581,1.532,0,3.215.018,4.978.065l12.823.337,1.539,6.554c.846,3.6,1.561,6.823,1.589,7.151s-5.591.6-12.486.6H634.71l-1.193.017Zm343.075,0c-12.624,0-23.073-.121-23.221-.267a48.589,48.589,0,0,1,.929-7.447l1.2-7.182h47.842l-.8,3.278c-.439,1.8-1.293,5.153-1.9,7.447l-1.1,4.172Zm-290.591,0c-14.346,0-23.247-.453-23.484-1.192-1.167-3.639-2.9-10.93-2.907-12.215-.005-1.141,5.46-1.49,23.341-1.49,12.841,0,23.636.463,23.99,1.03s.983,3.919,1.4,7.449l.76,6.418Zm318.3-1.192a64.13,64.13,0,0,1,1.577-7.151l1.554-5.958,11.067-.344,11.069-.342-.8,3.322c-.441,1.827-1.4,5.117-2.136,7.311l-1.333,3.99-10.508.181q-1.039.018-2,.017C1007.583,1318.976,1004.284,1318.588,1004.3,1317.948Zm-403.5-1.4a29.292,29.292,0,0,1-1.874-6.428l-.789-4.342,6.1-1.452a36.277,36.277,0,0,1,5.943-1.016,1.215,1.215,0,0,1,.687.09c.292.29.888,3.111,1.325,6.271.66,4.783.422,6.014-1.425,7.354a9.118,9.118,0,0,1-5.227,1.569C603.422,1318.6,601.5,1317.9,600.8,1316.552Zm284.9-12.575a4.679,4.679,0,0,1,3,0c.825.331.151.6-1.5.6S884.876,1304.307,885.7,1303.977Zm-175.259-3.309h-.089l-.744-4.468a58.672,58.672,0,0,1-.759-7.45l-.015-2.979h49.842l.7,6.554c.386,3.6.488,6.956.229,7.448s-11.448.894-24.864.894H711.036l-.593.006Zm-69.331,0c-9.941,0-12.62-.361-13.166-1.774a49.784,49.784,0,0,1-1.445-7.447l-.76-5.676,13.027.209,13.025.21.832,4.557c1.732,9.5,2.385,9.924-8.071,9.924C643.518,1300.671,642.374,1300.668,641.111,1300.668Zm378.249,0h-11.146l1.333-7.252,1.333-7.251,11.187-.2,11.188-.2-.719,4.171c-.4,2.294-1.014,5.645-1.374,7.448l-.656,3.278Zm-39.28,0H956.217l.776-6.851a63.9,63.9,0,0,1,1.044-7.184c.271-.335,12.43-.544,24.523-.585s24.118.085,24.117.421c0,.382-.616,3.733-1.367,7.447l-1.365,6.753Zm-52.98,0H901.879l.745-4.468a58.619,58.619,0,0,0,.757-7.45l.013-2.979h50.44l-.013,2.979a58.663,58.663,0,0,1-.758,7.45l-.743,4.468Zm-244.576,0H658.588l-.656-3.278c-.36-1.8-.978-5.154-1.374-7.448l-.719-4.171,24.264.266c13.346.146,24.385.414,24.531.6a63.771,63.771,0,0,1,1.043,7.184l.779,6.851Zm204.5-2.9v-.007l.007.009C887.024,1297.766,887.024,1297.766,887.024,1297.765Zm-.37-.191.042.007a.14.14,0,0,1,.013.034C886.692,1297.6,886.672,1297.589,886.654,1297.574Zm0,0h0Zm-286.294-5.859c-.263-2.234-.182-4.021.181-3.97s2.5.751,4.753,1.559l4.093,1.468-4.274,2.5-4.275,2.5Zm274.233-5.056c-1.981-.025-2.647-.291-1.479-.594a7.649,7.649,0,0,1,1.936-.214,4.969,4.969,0,0,1,1.667.257c.777.311-.061.552-1.866.552Zm28.8-.888h0Zm119.5-4.17h-11.409v-8.343H1034.3v8.343Zm-384.834,0H624.77v-8.423l12.91.338,12.91.337.376,3.874.378,3.873Zm173.132-3.341a.62.62,0,0,1,.066-.082l.027-.023c.007.032.015.072.022.1Zm-.452-1.071c.1-.075.158-.121.244-.188.034.121.07.262.1.394C810.967,1277.328,810.851,1277.261,810.735,1277.189Zm29.206-.5h0c.008,0,.008,0,.008,0-.042.014-.08.032-.122.048C839.842,1276.7,839.878,1276.686,839.941,1276.687Zm2.622-3.931h0Zm-167.36-.047h0Zm113.811-3.308c-1.633.193-4.87.286-9.778.286-2.981,0-6.578-.035-10.809-.1l-20.544-.325-.76-5.5c-2.206-15.966.583-31.786,8.459-47.984,4.614-9.49,7.1-12.859,15.831-21.471,11.77-11.608,21.65-17.4,36.818-21.59,12.2-3.368,31.074-3.61,42.555-.545,27.867,7.44,49.021,27.282,59.07,55.4,2.565,7.177,4.289,29.82,2.85,37.429l-.815,4.313-10.058-.057.005.465-.105,0c0-.127.007-.289.012-.464l-11.1-.062c-21.079-.119-21.19-.133-13.666-1.768,20.963-4.554,29.738-13.542,20.64-21.139-3.924-3.276-13.753-7.278-21.121-8.6a35.563,35.563,0,0,1-5.487-1.282c-.431-.241,1.606-4.591,4.527-9.668,5.825-10.124,8.185-17.026,7.042-20.6a8.04,8.04,0,0,0-8.2-5.9c-3.809,0-17.3,5.907-24.115,10.561l-3.53,2.409-2.191-8.569c-7.231-28.281-19.841-30.866-27.292-5.592-1.256,4.257-2.6,9.2-2.99,10.991l-.708,3.25-6.885-4.37c-7.851-4.984-16.921-8.68-21.3-8.68-4.2,0-7.789,3.981-7.788,8.634,0,3.971,5.35,16.407,9.612,22.345,1.315,1.832,2.39,3.811,2.39,4.4s-3.25,1.732-7.221,2.547c-13.974,2.864-23.985,8.934-23.985,14.543,0,5.737,12.518,12.6,27.688,15.184,4.164.709,5.288,1.2,3.181,1.484-.055.107-.133.247-.225.407-.126.021-.239.044-.4.063C788.74,1269.7,788.872,1269.55,789.015,1269.4Zm167.231-.086c-17.283,0-26.127-.41-25.642-1.191a3.133,3.133,0,0,1,2.429-1.191c2.728,0,4.173-4.106,4.173-11.861,0-6.655-.25-7.348-3.023-8.394-3.709-1.4-5.38-5.47-5.38-13.111,0-4.17.561-6.13,1.982-6.919,2.4-1.335,1.7-7.538-1.618-14.276-1.593-3.232-3.1-4.55-5.7-4.989-2.368-.4-4.853-2.3-7.5-5.75-4.111-5.349-4.984-9.43-2.535-11.861,1.1-1.092.581-2.571-2.279-6.49-5.293-7.254-9.322-10.053-11.679-8.113-2.614,2.153-6.543.821-12.494-4.233-4.084-3.469-5.013-4.945-4.467-7.1.842-3.329-2.576-6.3-10.856-9.437-5.691-2.156-5.727-2.155-7.437.4-3.12,4.664-16.088,2-19.436-4-1.948-3.487-2.184-3.559-11.493-3.559-8.843,0-9.53.18-9.876,2.587-.756,5.269-16.472,7.347-19.65,2.6-1.7-2.536-1.76-2.54-8.248-.461-9.521,3.052-12.106,4.922-11.285,8.167.8,3.154-1.272,5.307-8.833,9.186-4.4,2.256-5.6,2.435-7.952,1.185-3.428-1.82-5.561-.79-11.992,5.8-4.335,4.438-4.593,5.064-3.179,7.687,1.718,3.186.95,5.331-4.436,12.384-2.323,3.042-3.835,3.87-7.065,3.87-3.862,0-4.323.448-7.658,7.443-4.217,8.847-4.258,9.291-1.1,11.973,1.991,1.691,2.3,2.911,1.649,6.517-1.4,7.749-3.674,11.955-6.7,12.38-2.644.371-2.821.948-3.151,10.219-.262,7.4.033,9.83,1.2,9.844,2.936.034,4.726,2.027,5.71,6.358l.988,4.342H675.7l-.81-5.355c-2.661-17.611,2.448-32.276,15.913-45.676a136.125,136.125,0,0,1,11.421-10.4l3.266-2.285-1.325-8.732c-2.563-16.882,2.357-34.062,13.028-45.5,11.365-12.18,24.921-16.977,46.673-16.513l13.368.285,8.272-8.735c14.809-15.637,27.463-21.754,44.717-21.62,16.4.129,29.078,6.194,42.526,20.34l7.7,8.094,14.279-.563c21.321-.841,33.351,2.805,45.035,13.649,11.132,10.332,16.167,25.059,15.186,44.408l-.574,11.314,7.323,5.448c9.258,6.888,17.987,17.55,21.337,26.063,3.078,7.823,3.7,24.249,1.191,31.314l-1.588,4.466Zm-136.615-5.771c-4.511-4.258-4.852-5.036-4.852-11.073,0-5.946.383-6.864,4.552-10.9,4.022-3.9,5.25-4.41,10.559-4.41,5.372,0,6.477.477,10.452,4.516,4.036,4.1,4.444,5.118,4.444,11.073,0,6.02-.372,6.916-4.551,10.967-3.933,3.81-5.313,4.41-10.152,4.41C825.228,1268.125,823.837,1267.515,819.631,1263.545Zm29.689-.113a10.475,10.475,0,0,1,2.655-5.42c1.993-1.789,2.391-1.613,5.9,2.608l3.765,4.527-2.726.774a32.482,32.482,0,0,1-6.42.893c-.377.012-.716.02-1.018.02C849.029,1266.835,848.892,1266.321,849.32,1263.432Zm-41.443,3.36a41.794,41.794,0,0,1-6.482-.893l-3.181-.752,4.075-4.657c3.979-4.547,4.131-4.606,6.482-2.495a8.435,8.435,0,0,1,2.407,5.55c0,2.66-.361,3.266-2.555,3.266Q808.281,1266.811,807.877,1266.793Zm-26.705-4.142c-15.476-4.088-21.776-9.884-15.313-14.086,4.032-2.621,15.74-6.458,22.37-7.332,5.6-.737,5.661-.71,10.092,4.933,2.451,3.121,4.455,6.035,4.455,6.475s-1.962,3.3-4.361,6.355c-3,3.816-4.7,5.41-8.07,5.41C788.209,1264.407,785.4,1263.769,781.172,1262.651Zm80.555-3.892h0l-5.066-6,4.564-6.037c4.491-5.941,4.652-6.029,9.966-5.476,11.727,1.221,25.8,7.44,25.8,11.4,0,3.816-12.461,9.48-24.945,11.337a23.157,23.157,0,0,1-3.179.342C866.468,1264.321,865.428,1263.146,861.727,1258.76Zm162.069-9.8c2.72-2.049,2.945-11.2.3-12.21-.991-.377-1.8-1.12-1.8-1.651,0-.066.051-.108.148-.128a1.23,1.23,0,0,1,.355,0,31.215,31.215,0,0,1,6.7,2.328c3.963,1.738,7.206,3.713,7.206,4.388s-2.922,2.962-6.493,5.082c-4.055,2.407-7.1,3.829-7.842,3.829C1021.925,1250.593,1022.307,1250.08,1023.8,1248.958Zm3.3-6.684c0,4.165,1.065,4.441,4.972,1.285l2.834-2.291-3.38-1.284a16.411,16.411,0,0,0-3.393-1.1c-.042,0-.082,0-.121,0C1027.059,1238.875,1027.1,1239.831,1027.1,1242.275Zm-220.816,6.773c-.278-.012-2.238-2.093-4.357-4.624l-3.851-4.6,3.7-.734c7.642-1.517,9.4-1.021,9.4,2.654,0,2.8-3.006,7.309-4.849,7.309Zm45.555-1.945a13.354,13.354,0,0,1-2.528-5.477c-.543-3.015-.293-3.266,3.144-3.157a33.587,33.587,0,0,1,6.519.9l2.784.777-3.991,4.581c-2.29,2.629-3.3,3.72-4.134,3.72C853.07,1248.443,852.584,1247.952,851.837,1247.1Zm-226.747.774c-.2,0-.316-.079-.316-.255,0-.382,1.486-1.964,3.3-3.517l3.3-2.822-2.7-2.858c-1.485-1.572-2.7-3.617-2.7-4.544,0-.232.1-.329.287-.308.553.061,1.846,1.191,3.343,2.993,2.489,3,4.847,4.52,7.506,4.848l3.877.478-4.357.191c-2.4.105-5.054,1.024-5.906,2.043-1.459,1.742-4.624,3.75-5.634,3.75Zm239.093-12.064c-.437-.086-3.919-.553-7.741-1.039s-7.124-1.085-7.339-1.333a51.154,51.154,0,0,1-1.042-7.918c-.636-7.3-.565-7.531,3.138-10.288,4.5-3.345,15.59-8.979,20.351-10.334,9.866-2.808,9.187,6.3-1.75,23.487-2.62,4.118-5.118,7.427-5.6,7.427Zm-71.469-3.825c-4.56-6.091-8.822-14.106-10.471-19.686-1.376-4.656-1.316-5.366.567-6.732,2.786-2.022,8.7-.436,18.167,4.869,12.13,6.8,12.321,7.069,11.07,15.707-1.177,8.129-.883,7.9-11.394,9.043a26.093,26.093,0,0,1-2.715.2C795.552,1235.384,794.665,1234.6,792.713,1231.988ZM816,1229.121c.03-7.185,1.271-7.9,6.4-3.71,4.3,3.517,4.412,3.789,2.459,5.931a8.4,8.4,0,0,1-5.463,2.245C816.245,1233.586,815.981,1233.239,816,1229.121Zm19.756,2.051c-2.156-2.364-2.115-2.488,1.915-5.907,2.264-1.92,4.451-3.513,4.86-3.54.691-.045,2.214,7,2.244,10.372.009,1.016-1.165,1.482-2.708,1.482A9.327,9.327,0,0,1,835.754,1231.172Zm186.791-.516c2.587-2.956,1.481-10.7-1.669-11.688-1.3-.41-2.079-1.029-1.728-1.376a1.446,1.446,0,0,1,.988-.176c3.465.164,14.169,4.034,14.169,5.41,0,.853-2.567,3.419-5.7,5.7-3.687,2.684-6.179,4.117-6.958,4.117C1021.119,1232.646,1021.368,1232,1022.545,1230.656Zm3.2-9.735a.752.752,0,0,0-.482.143,9.24,9.24,0,0,0,.271,3.577c.6,3.1.732,3.151,3.5,1.352,1.581-1.027,2.872-2.285,2.872-2.793,0-.778-4.325-2.283-6.028-2.283C1025.828,1220.917,1025.784,1220.918,1025.743,1220.921Zm-390.5,10.509a27.541,27.541,0,0,1-6.863-1.173c-2.2-.772-1.293-.915,3.351-.529,5.982.5,6.426.344,7.564-2.626a15.605,15.605,0,0,0,.852-6.2c-.3-2.591-1.256-3.253-6.363-4.425-4.667-1.071-5.834-1.671-3.5-1.743q1.167-.037,3.5.106a15.789,15.789,0,0,1,6.349,1.969c2.346,1.494,2.628,2.393,1.943,6.162-1.233,6.777-2.44,8.471-6.359,8.471Q635.484,1231.437,635.241,1231.43Zm188.392-10.511-6.15-5.247,1.689-7.995c2.02-9.563,6.752-20.288,9.395-21.293,4.283-1.632,9.251,7.229,12.705,22.658l1.571,7.017-3.53,2.869c-1.941,1.578-4.88,3.852-6.53,5.054l-3,2.184Zm195.057-7.059c0-.642,2.038-1.509,4.529-1.927,8.069-1.352,8.371-2.657.992-4.295-3.757-.834-7.055-1.875-7.327-2.313s1.643-2.87,4.259-5.4,4.754-5.008,4.754-5.5-2.567-.12-5.706.824c-6.776,2.04-6.3,1.984-6.3.748,0-.548,3.013-1.828,6.7-2.845a27.508,27.508,0,0,1,5.72-1.25,1.545,1.545,0,0,1,1.682,1.235c.456,1.18-1.071,3.479-4.288,6.457-2.954,2.734-4.385,4.815-3.5,5.089,10.187,3.147,12.213,3.952,12.564,5,.224.67-1.9,1.875-4.729,2.682l-7.239,2.066a3.532,3.532,0,0,1-.957.145C1019.157,1214.57,1018.69,1214.31,1018.69,1213.859Zm-376.5-.295a37.505,37.505,0,0,1-7.111-1.482c-7.042-2.109-6.663-3.976,1.559-7.661,4-1.793,7.291-3.615,7.313-4.049s-2.12-1.151-4.759-1.593c-4.156-.7-8.063-2.98-5.1-2.98,3.085,0,13.472,3.847,12.894,4.775-.372.6-3.9,2.522-7.841,4.276s-7.165,3.608-7.165,4.116,2.038,1.265,4.528,1.683c5.237.878,9.31,2.921,5.971,2.921C642.388,1213.569,642.292,1213.567,642.189,1213.564Zm-2-18.189c-2.422-.75-4.854-1.852-5.4-2.448-.364-.4-.334-.6.029-.6a3.416,3.416,0,0,1,1,.235c1.114.4,4.221,1.305,6.9,2.023s4.878,1.552,4.878,1.854q0,.427-.9.428A27.781,27.781,0,0,1,640.185,1195.376Zm372.53-2.783a2.635,2.635,0,0,1,1.074-2.094c1.936-1.187-2.382-10.019-5.163-10.562-1.4-.273.158-.562,3.46-.643q1.292-.032,2.468-.01c5.48.093,8.941,1,8.941,2.423,0,1.562-9.293,11.055-10.623,11.055C1012.772,1192.762,1012.716,1192.708,1012.714,1192.593Zm1.644-9.208a10.864,10.864,0,0,1,.73,2.979c0,1.639,1.353,1.326,3.808-.878,3.161-2.839,2.718-3.986-1.536-3.986C1014.452,1181.5,1013.79,1181.915,1014.359,1183.384Zm-377.575,5.374c.992-.7,4.009-1.272,6.706-1.283s5.276-.388,5.732-.839-1.459-3.134-4.253-5.959-4.5-5.135-3.783-5.135c2.088,0,11.569,10.849,10.439,11.946-.566.55-4.541,1.344-8.835,1.766-2.214.217-3.815.329-4.864.329C636.294,1189.582,635.991,1189.314,636.784,1188.758Zm13.272-16.257c-2.794-3.672-4.878-6.876-4.632-7.122s4.078-.814,8.515-1.265c2.143-.218,3.813-.331,5.063-.338,2.085-.011,3,.275,3,.875,0,.746-.98,1.356-2.18,1.356-3.056,0-6.844,7.956-4.9,10.285.777.93,1.142,1.958.811,2.288a.1.1,0,0,1-.074.026C655.127,1178.607,652.7,1175.972,650.056,1172.5Zm-.55-3.515c1.082,1.639,2.358,2.98,2.836,2.98s1.486-1.341,2.239-2.98c1.317-2.869,1.212-2.979-2.838-2.979h-4.205Zm-42.887,7.261c-1.2-1.433-1.124-1.912.4-2.49a4.267,4.267,0,0,1,1.678-.3,2.7,2.7,0,0,1,2.717,2.843,1.533,1.533,0,0,1-1.657,1.66A4.368,4.368,0,0,1,606.618,1176.247Zm399.8-.981c2.074-2.493-1.557-10.451-4.767-10.451-1.2,0-2.18-.535-2.18-1.191,0-.714,3.8-1.123,7.711-1.173s7.93.254,8.372.963c.737,1.183-7.182,12.518-9.231,13.215a1.939,1.939,0,0,1-.563.127C1005.35,1176.755,1005.567,1176.3,1006.422,1175.266Zm.477-7.472c1.686,3.672,2.224,3.67,4.943-.037l2.157-2.943h-4.234C1005.686,1164.815,1005.581,1164.923,1006.9,1167.794Zm-350.167-8.976-5.7-3.587,2.669-4.444c2.746-4.572,4.125-6.409,6.435-6.317,1.386.056,3.107.807,5.659,2.079,3.3,1.645,5.734,3.253,5.411,3.575s-1.68.007-3.015-.7a13.774,13.774,0,0,0-2.946-1.288c-1.19,0-7.106,10.043-6.118,10.388,2.372.827,4.574,2.628,3.958,3.238a.289.289,0,0,1-.206.058C662.1,1161.816,659.523,1160.574,656.733,1158.818Zm-2.5-3.489c1.284,2.062,2.969,1.208,5.388-2.729,2.722-4.428,3.043-6.837.916-6.837H660.5C658.568,1145.782,653.291,1153.825,654.228,1155.329Zm339.3-.942c-3.93-6.258-3.9-6.351,3.825-10.919l4.478-2.649,3.628,5.677c2,3.123,3.629,6.062,3.629,6.53,0,1.651-7.417,7.023-9.7,7.023C997.934,1160.049,995.764,1157.953,993.524,1154.387Zm7.907-10.577c-1.611.086-9.16,4.174-9.16,5.06,0,1.358,6.18,9.987,7.153,9.987.615,0,2.618-1.28,4.451-2.844l3.333-2.844-2.365-4.4a23.743,23.743,0,0,0-3.172-4.917.359.359,0,0,0-.191-.04ZM620.5,1151.121c-2.05-2.034-2.338-3.24-1.076-4.493a.493.493,0,0,1,.25-.131.893.893,0,0,1,.314,0c1.735.247,5.84,4.33,5.122,5.483a1.758,1.758,0,0,1-1.517.962C622.757,1152.937,621.722,1152.331,620.5,1151.121Zm49.517-4.969c-.437-.433.367-1.371,1.785-2.086,3.661-1.841,7.474-7.326,6.624-9.525-1.01-2.611-3.353-1.36-6.525,3.486-2.865,4.376-6.227,5.311-8.658,2.4-1.181-1.412-.716-2.764,2.459-7.149,2.456-3.393,5.463-5.573,7.1-5.577.745,0,1.208.443,1.208,1.429,0,.693-.5.958-1.105.585-1.227-.752-4.075,1.754-6.963,6.128-1.453,2.2-1.567,3.2-.485,4.274s2.5.153,6.086-3.936c3.967-4.527,5.008-5.135,6.874-4.015,3.511,2.107,3.171,4.374-1.46,9.743-3.05,3.535-4.509,4.923-5.623,4.923A1.9,1.9,0,0,1,670.02,1146.152Zm318.468-2.427c1.636-2.9-4.064-10.232-7.19-9.247-1.231.388-2.237.235-2.237-.341,0-1.108,9.714-2.965,14.037-3.008a3.638,3.638,0,0,1,1.946.292c1.1.994-5.124,14.326-6.685,14.326C987.8,1145.748,987.86,1144.839,988.488,1143.726Zm2-11.06c-1.549.088-3.218.527-3.662,1.241-.435.7.177,2.327,1.36,3.624,2.136,2.342,2.161,2.34,3.679-.374a14.142,14.142,0,0,0,1.57-3.624c.03-.606-1.069-.884-2.385-.884C990.861,1132.649,990.672,1132.655,990.483,1132.666Zm-362.816,5.985a2.857,2.857,0,0,1-2.632-1.8c-.391-1.011-.451-2.1-.134-2.41a1.162,1.162,0,0,1,.814-.3c1.429-.032,3.71,1.53,3.71,2.89a1.589,1.589,0,0,1-1.755,1.616Zm50.1-9.7c-2.892-2.557-4.784-4.64-4.2-4.631,1.541.026,10.77,8,10.062,8.69a.163.163,0,0,1-.117.037C682.883,1133.042,680.433,1131.3,677.764,1128.947Zm2.4-2.384c-2.892-2.557-4.784-4.629-4.2-4.6,1.515.064,10.719,8.047,10.034,8.7a.149.149,0,0,1-.1.032C685.3,1130.693,682.85,1128.935,680.166,1126.563Zm293.174,1.491c-.331,0-.29-.4.262-1.285a42.123,42.123,0,0,1,5.776-4.98l5.087-3.875-4.747,4.98c-2.944,3.088-5.624,5.16-6.377,5.16Zm-1.463-3.3c.023-1.106,8.951-8.815,9.962-8.664h0a.1.1,0,0,1,.073.04c.168.234-2.026,2.505-4.876,5.048-2.458,2.194-4.523,3.693-5.035,3.693C971.917,1124.868,971.875,1124.83,971.876,1124.751Zm-284.644-4.618-4.068-4.164-2.773,2.584c-5.193,4.84-2.8.306,2.631-4.98,2.871-2.8,4.956-4.254,5.46-4.148.391.082-.174,1.111-2.071,3.191s-1.769,2.46,2.646,6.946c2.564,2.6,4.117,4.736,3.452,4.736S689.469,1122.423,687.232,1120.133ZM964.1,1118.19c-3.162-3.728-3.474-5.87-.977-6.7a.92.92,0,0,1,.268-.05c.574-.015.781.682.489,1.789-.348,1.319.594,3.268,2.385,4.937,3.4,3.172,6.032,2.416,10.295-2.962,1.373-1.731,2.5-2.5,2.5-1.7,0,2.327-6.805,8.411-9.409,8.411C968.34,1121.915,965.842,1120.239,964.1,1118.19Zm-265.77-1.063c-.5-.012-2.748-2.291-5.006-5.065l-4.1-5.043,5,4.711c5.046,4.75,5.582,5.4,4.23,5.4Zm-2.816-7.427-3.918-5.063,5.019,4.71c5.345,5.018,5.635,5.42,3.918,5.42C699.933,1114.766,697.674,1112.485,695.519,1109.7Zm256.561-2.208c-2.335-2.034-4.245-4.263-4.245-4.953,0-2.122,6.027-9.225,7.826-9.225,2.386,0,10.189,7.028,10.189,9.176,0,2.933-4.8,8.7-7.245,8.7C957.351,1111.19,954.415,1109.526,952.08,1107.492Zm.354-9.822c-3.211,2.883-2.7,5.808,1.606,9.15s6,3.1,8.843-1.214c1.907-2.889,1.858-3.128-1.352-6.454-2.14-2.217-3.761-3.3-5.326-3.32h-.047A5.74,5.74,0,0,0,952.434,1097.67ZM705.886,1106.5c-.383-.617.314-1.044,1.549-.952,2.568.191,9.649-4.961,9.748-7.093.143-3.056-2.575-2.731-7.706.926-4.471,3.186-5.672,3.572-7.2,2.309-2.8-2.3-2.242-4.2,2.409-8.249,2.6-2.266,5.453-3.626,7.226-3.718,1.064-.055,1.738.346,1.738,1.283,0,.693-.571.911-1.27.482-1.389-.851-10.739,5.067-10.739,6.8,0,2.511,3.787,2.166,7.56-.691,4.79-3.625,7.525-3.9,9.128-.934,1.356,2.516.878,3.34-4.47,7.7-2.62,2.136-4.636,3.2-6.068,3.2A2.113,2.113,0,0,1,705.886,1106.5Zm231.232-10.308c-4.332-3.618-4.623-6.147-1.206-10.458,1.681-2.121,3.045-3.095,4.839-2.974,1.4.093,3.053.85,5.322,2.242,5.254,3.223,5.875,5.429,2.88,10.238-1.65,2.648-3.441,3.965-5.537,3.965C941.585,1099.2,939.52,1098.193,937.118,1096.187Zm-1.528-7.2c-1.114,2.067-.716,2.91,2.722,5.758,4.942,4.094,6.3,4.156,8.785.4,2.863-4.336,2.409-6.114-2.3-9a9.307,9.307,0,0,0-4.209-1.674l-.135,0C938.612,1084.467,937.259,1085.891,935.59,1088.986ZM720.6,1090.634c-.258-4.1-.085-7.91.385-8.473a.418.418,0,0,1,.312-.111c2.221-.085,13.968,6.508,13.968,8.009,0,.526-.972.439-2.161-.193-2.821-1.5-9.848,2.746-9.848,5.949,0,1.247-.492,2.266-1.094,2.266S720.856,1094.73,720.6,1090.634Zm1.455-3.278c0,3.87,1.682,4.494,5.126,1.9,1.99-1.5,1.938-1.72-.858-3.538-1.741-1.133-2.775-1.752-3.387-1.752h-.011C722.137,1083.979,722.053,1085.028,722.053,1087.356Zm208.139,4.714a28.987,28.987,0,0,1-5.477-2.412c-2.477-1.3-4.5-2.676-4.5-3.063,0-1.678,5.778-11.143,6.82-11.365a.112.112,0,0,1,.143.084c.243.722-.685,3.118-2.061,5.327-3.295,5.291-3.172,6.15,1.129,7.917,3.412,1.4,5.832,3.516,4.084,3.516C930.285,1092.074,930.24,1092.073,930.192,1092.07Zm-193.727-11c0-4.331.459-8.156,1.018-8.5a.33.33,0,0,1,.143-.042c1.8-.18,13.251,7.568,13.251,9.047,0,.568-.963.437-2.138-.292-1.665-1.031-3.059-.813-6.3.988-2.292,1.271-4.167,2.889-4.167,3.6a3.537,3.537,0,0,1-.9,2.181.147.147,0,0,1-.1.051C736.816,1088.1,736.465,1085.1,736.465,1081.071Zm1.931.653c.608.6,2.063.059,6.345-2.382.635-.362-5.037-5-6.174-5.055h-.012C737.493,1074.287,737.349,1080.686,738.4,1081.724Zm-69.342,2.148c-1.032-1.914-1.013-2.953.078-4.258a2.31,2.31,0,0,1,1.579-.9,2.044,2.044,0,0,1,.309,0h0c1.537.112,2.952,1.994,2.6,4.369-.276,1.845-1.132,2.806-2.115,2.806C670.688,1085.889,669.787,1085.232,669.054,1083.872Zm239.92-2.623c-4.252-2.226-4.572-2.737-3.874-6.2a13.818,13.818,0,0,1,3.058-6.053c1.107-1.1,1.731-1.649,2.731-1.678s2.376.464,4.99,1.455c7.27,2.755,8.4,7.1,3.366,12.922a4.58,4.58,0,0,1-3.621,1.91C914.031,1083.6,911.989,1082.827,908.974,1081.25Zm-.772-9.106a20.431,20.431,0,0,0-2.4,4.757c-.007,1.18,8.71,5.661,10.193,5.239.654-.185,2.116-1.912,3.248-3.835,2.48-4.213,1.686-5.767-4.187-8.2l-4.467-1.853Zm-150.79,2.845c-.484-1.913-2.32-3.46-5.641-4.755-2.708-1.055-4.616-2.224-4.239-2.6s2.561.1,4.856,1.052l4.173,1.729,2.013-4.191c1.148-2.388,2-3.524,2.391-3.571h0c.505-.06.256,1.682-1.091,4.883-1.34,3.181-1.508,5-.616,6.658,1.534,2.845,1.543,3.627.047,3.627C758.659,1077.823,757.806,1076.547,757.412,1074.988Zm138.622-4.854c-1.551-4.292-3.189-7.8-3.639-7.8s-1.466,2.012-2.257,4.469-1.993,5-2.672,5.66c-.834.806-1.009.558-.541-.771.38-1.078,1.362-4.184,2.182-6.9.916-3.032,1.922-4.522,3.041-4.463,1.268.067,2.681,2.124,4.274,6.176,3.261,8.3,4.168,8.778,5.875,3.125.815-2.7,1.906-4.913,2.421-4.913,1.351,0-3.05,12.291-4.583,12.8a.245.245,0,0,1-.074.011C899.308,1077.523,897.533,1074.282,896.034,1070.134Zm-129.438.422c-.813-2.694-1.8-5.735-2.2-6.757-.322-.834-.284-1.29.066-1.274a1.033,1.033,0,0,1,.455.177c1.409.864,4.606,11.313,3.728,12.184a.106.106,0,0,1-.077.033C768.2,1074.918,767.351,1073.058,766.6,1070.555Zm2.838-2.882c-2.675-9.131-.956-10.292,6.922-4.676,3.163,2.255,6.088,4.1,6.5,4.1.794,0-.042-5.158-1.4-8.641-.448-1.147-.3-2.084.325-2.084,1.2,0,4.7,12.73,3.761,13.664-.3.3-3.741-1.559-7.644-4.131s-7.281-4.5-7.5-4.272.223,2.9,1,5.959c1.029,4.054,1.125,6.087.667,6.087S770.608,1071.683,769.434,1067.673Zm108.7-.8-4.045-4.994-1.62,3.941c-2.366,5.755-2.872,3.931-.932-3.367,1.125-4.231,2.507-7.453,2.915-7.483.214-.016.162.845-.334,2.894-.949,3.923,1.245,4.321,8.113,1.474,2.392-.992,4.351-1.346,4.351-.786s-2.145,1.719-4.765,2.577l-4.763,1.56,3.663,4.589c2.014,2.525,3.169,4.589,2.563,4.589S880.364,1069.616,878.139,1066.869Zm-17.829.546-4.059-.491.8-6.7c.437-3.687,1.02-6.931,1.3-7.207a2.411,2.411,0,0,1,1.377-.214c3.078.046,10.05,1.471,10.05,2.3,0,.527-2.147.569-4.771.092s-5.056-.583-5.4-.237c-1.847,1.833-.091,3.687,4.169,4.4,2.642.443,4.8,1.223,4.8,1.732s-2.134.541-4.742.067c-3.618-.657-4.9-.453-5.408.863-1.054,2.727.366,3.892,4.745,3.892,2.234,0,4.4.537,4.8,1.192s.331.954-1.017.954C865.813,1068.052,863.76,1067.833,860.31,1067.415Zm-71.3.2c-1.58-1.6-.974-3.252.692-1.881,2.48,2.042,12.1.03,12.616-2.639.374-1.926-.387-2.112-7.2-1.757-6.956.363-7.643.183-7.971-2.09a4.559,4.559,0,0,1,1.214-3.783c1.329-1.094,6.146-1.761,9.71-1.72,2.139.026,3.827.305,4.039.9.273.766-1.078,1.078-3.476.8-4.558-.522-10.528,1.431-10.528,3.443,0,.966,1.837,1.171,6.042.677,3.324-.39,6.837-.408,7.806-.039,1.974.752,2.407,5.84.592,6.953-1.391.854-7.032,1.544-10.6,1.544A5.968,5.968,0,0,1,789.008,1067.615Zm58.1-7.965c-.146-6.474-.319-6.851-3.156-6.851-1.651,0-3-.563-3-1.251,0-.517,1-.769,2.952-.754h0q1.76.014,4.554.316c8.266.895,10.54,1.689,4.84,1.689-3.527,0-3.713.262-4.851,6.851l-1.184,6.853Zm-37.815,3.622a29.458,29.458,0,0,1-.612-6.9c.044-1.478.112-2.228.248-2.166.175.08.463,1.5.953,4.432.724,4.325.812,7.072.415,7.072C810.09,1065.712,809.747,1064.954,809.293,1063.271Zm153.468,1.806c-1.355-1.345-.611-3.79,1.5-4.908a4.609,4.609,0,0,1,1.974-.563c1.845-.071,3.14,1.242,2.424,3.1-.575,1.486-3.032,2.771-4.68,2.771A1.687,1.687,0,0,1,962.761,1065.077Zm-144.63-6.769c0-6.22.109-6.426,3.754-7.149a34.9,34.9,0,0,1,4.988-.691c.27-.012.523-.016.76-.013,1.656.019,2.508.4,2.508,1.151,0,.655-2.471,1.192-5.492,1.192-4.588,0-5.424.344-5.078,2.085.331,1.674,1.418,2.006,5.492,1.685,3.1-.245,5.078.1,5.078.894,0,.74-2.323,1.294-5.427,1.294-5.189,0-5.394.131-4.674,2.98.464,1.835.244,2.979-.576,2.979S818.131,1062.2,818.131,1058.308Zm13.21-.745c0-3.892.329-6.794.745-6.769a.14.14,0,0,1,.085.044c.85.845.561,12.886-.331,13.777a.048.048,0,0,1-.033.017C831.548,1064.631,831.342,1061.547,831.342,1057.563Zm-25.69,1.985c-.511-3.824-.656-7.223-.32-7.556a.168.168,0,0,1,.082-.048c.862-.157,2.226,9.71,1.653,12.331-.051.234-.116.346-.191.346C806.56,1064.622,806.065,1062.64,805.652,1059.548Zm23.888-12.1c-.9,0-1.619.006-2.468.008q1.532-.065,3.063-.107,1.109.049,2.217.111C831.414,1047.459,830.509,1047.45,829.54,1047.451Zm94.392-4.3a6.131,6.131,0,0,1,4.431-3.319,1.034,1.034,0,0,1,.793.245,2.824,2.824,0,0,1,.1,2.639c-.452,1.17-2.233,1.826-3.625,1.826C924.49,1044.537,923.612,1044.1,923.933,1043.147Zm-26.009-7.995c-.362-.582.146-1.719,1.13-2.528a3.162,3.162,0,0,1,1.22-.76c.451-.062.569.5.569,1.816,0,1.6-.668,2.535-1.465,2.535A1.865,1.865,0,0,1,897.924,1035.152Zm-103.968-.73a1.8,1.8,0,1,1,1.8,1.787A1.8,1.8,0,0,1,793.956,1034.422Zm66.588-15a2.147,2.147,0,0,1,1.831-3.186h0a1.841,1.841,0,0,1,1.373.563c1.386,1.375.518,3.918-1.337,3.918A2.691,2.691,0,0,1,860.544,1019.422Z" transform="translate(358.852 -443.86)" fill="rgba(0,106,0,0.98)"/>
    </g>
    <g id="logo_Text" data-name="logo Text" transform="translate(1799.232 891.595)">
      <path id="Path_14" data-name="Path 14" d="M3.456,8.155,36.418-67.961h2.023L71.319,8.155H58.787l-4.552-10.5H20.653L16.1,8.155Zm45.52-22.509L37.441-40.936,25.808-14.354ZM81.547-55.086a19.9,19.9,0,0,1,3.49-6.54,20.545,20.545,0,0,1,5.413-4.661,24.89,24.89,0,0,1,6.776-2.786,31.143,31.143,0,0,1,7.587-.911,32.462,32.462,0,0,1,13.505,2.958A35.7,35.7,0,0,1,129.7-58.934L121.711-49.5a25.733,25.733,0,0,0-7.942-5.788,22.009,22.009,0,0,0-9.355-2.038,20.047,20.047,0,0,0-4.437.482,11.118,11.118,0,0,0-3.813,1.6,8.3,8.3,0,0,0-2.68,3,9.731,9.731,0,0,0-1.012,4.661,4.733,4.733,0,0,0,.405,2.038ZM93.379-44.473a12.056,12.056,0,0,0,4.8,4.179q3.39,1.822,7.69,3.644t8.85,3.913a39.563,39.563,0,0,1,8.359,5.144,26.7,26.7,0,0,1,6.271,7.235,19.64,19.64,0,0,1,2.479,10.184A18.607,18.607,0,0,1,129.5-.689a21.723,21.723,0,0,1-5.969,6.7,25.227,25.227,0,0,1-8.243,3.966,33.888,33.888,0,0,1-9.169,1.287,41.324,41.324,0,0,1-7.83-.75A33.991,33.991,0,0,1,90.8,8.146,32.021,32.021,0,0,1,84.07,4.073a28.055,28.055,0,0,1-5.564-5.895l9.409-7.823a17.072,17.072,0,0,0,8.344,6.483,30.614,30.614,0,0,0,10.266,1.775,24.077,24.077,0,0,0,4.351-.429,15.061,15.061,0,0,0,4.351-1.5,9.832,9.832,0,0,0,3.339-2.839,7.253,7.253,0,0,0,1.316-4.437,7.637,7.637,0,0,0-2.629-5.842,28.144,28.144,0,0,0-6.676-4.4q-4.046-1.982-8.85-3.966A67.506,67.506,0,0,1,92.559-29.4a33.316,33.316,0,0,1-7.587-6.211,17.3,17.3,0,0,1-4.141-8.844ZM139-54.87V-66.875h58.268V-54.87H174.1V8.155H161.975V-54.87ZM219.72-66.875v46.517a19.161,19.161,0,0,0,1.417,7.664,16.333,16.333,0,0,0,3.742,5.466A15.085,15.085,0,0,0,230.2-3.96a17.691,17.691,0,0,0,6.019,1.071,17.549,17.549,0,0,0,6.069-1.071,15.185,15.185,0,0,0,5.259-3.268,16.333,16.333,0,0,0,3.742-5.466,19.161,19.161,0,0,0,1.417-7.664V-66.875h12.127v46.517A34.49,34.49,0,0,1,262.357-6.8a29.658,29.658,0,0,1-6.475,9.761A25.955,25.955,0,0,1,246.713,8.8a29.812,29.812,0,0,1-10.521,1.929A29.811,29.811,0,0,1,225.671,8.8,25.952,25.952,0,0,1,216.5,2.961,29.658,29.658,0,0,1,210.028-6.8a34.491,34.491,0,0,1-2.479-13.558V-44.476l12.127-10.4H207.549V-66.878Z" transform="translate(191.235 69.984)" fill="#ff002c"/>
      <path id="Path_15" data-name="Path 15" d="M7.2,28.707H28.4V-27.743L58.37,28.707h7.9L96.377-27.743V28.707h21.2V-66.28h-21.2l-34,64.045L28.4-66.28H7.2ZM136.248-66.28v19.134h78.385V-66.28Zm0,38v19h78.385v-19Zm.375,37.86V28.71h78.011V9.576ZM232.941,28.71h21.2V-36.7L305.3,28.964l23.955-.272L254.137-66.28h-21.2Zm75.122-51.022,21.2,25.647V-66.28h-21.2ZM341.938-66.28v19h97.946v-19Zm38.375,94.986h21.2V-32.357h-21.2ZM550.486-18.8c0-33.923-27.089-50.614-50.039-50.614-23.076,0-50.039,16.691-50.039,50.614s26.963,50.614,50.039,50.614C523.4,31.827,550.486,15.136,550.486-18.8Zm-21.7,0c0,19.4-15.3,28.767-28.343,28.767-13.17,0-28.469-9.364-28.469-28.767s15.3-28.9,28.469-28.9C513.491-47.69,528.79-38.19,528.79-18.8Zm-38.127.136c0,6.377,3.761,10.45,9.784,10.45,5.893,0,9.658-4.07,9.658-10.45s-3.761-10.583-9.658-10.583c-6.019.012-9.78,4.218-9.78,10.595ZM608.3-6.967l23.2,35.689h26.462L631-8.866c11.79-4.478,17.684-16.147,17.684-27.682,0-14.925-9.532-29.717-28.844-29.717H566.916v19.134H616.2a11.954,11.954,0,0,1,8.56,2.87,9.949,9.949,0,0,1,3.479,7.713,9.949,9.949,0,0,1-3.479,7.713,11.954,11.954,0,0,1-8.56,2.87H566.916v19Z" transform="translate(-7.2 197.892)" fill="#ff002c"/>
      <path id="Path_15_-_Outline" data-name="Path 15 - Outline" d="M500.475,32.315h-.028a52.576,52.576,0,0,1-17.724-3.168,51.07,51.07,0,0,1-16.278-9.541A46.976,46.976,0,0,1,454.526,3.629,53.676,53.676,0,0,1,449.908-18.8a53.676,53.676,0,0,1,4.619-22.427A46.976,46.976,0,0,1,466.445-57.2a51.07,51.07,0,0,1,16.278-9.541,52.577,52.577,0,0,1,17.724-3.168,52.379,52.379,0,0,1,17.672,3.168A51.242,51.242,0,0,1,534.4-57.2,47.07,47.07,0,0,1,546.35-41.226,53.521,53.521,0,0,1,550.986-18.8,53.555,53.555,0,0,1,546.353,3.63a47.062,47.062,0,0,1-11.941,15.977,51.2,51.2,0,0,1-16.275,9.541A52.335,52.335,0,0,1,500.475,32.315Zm-.028-101.227c-24.016,0-49.539,17.564-49.539,50.114s25.524,50.114,49.539,50.114h.028a51.274,51.274,0,0,0,33.28-12.461c7.4-6.465,16.232-18.246,16.232-37.652C549.986-51.348,524.463-68.912,500.447-68.912ZM305.062,29.467l-.152-.2L254.637-35.244V29.21h-22.2V-66.78h21.938l.15.19,75.754,95.77ZM253.637-38.154l51.909,66.615,22.689-.258L253.895-65.78H233.441V28.21h20.2Zm405.3,67.375H631.234l-.148-.228L608.032-6.467H566.416v-20h49.815c.227.013.458.02.686.02a11.349,11.349,0,0,0,7.516-2.766,9.476,9.476,0,0,0,3.309-7.326v-.025a9.475,9.475,0,0,0-3.309-7.326,11.349,11.349,0,0,0-7.516-2.766c-.228,0-.458.007-.686.02H566.416V-66.765h53.428c9.1,0,16.721,3.263,22.043,9.435a29.253,29.253,0,0,1,5.483,9.68,34.141,34.141,0,0,1,1.818,11.1,34.007,34.007,0,0,1-1.122,8.69A31.144,31.144,0,0,1,644.7-19.8,26.74,26.74,0,0,1,631.785-8.636Zm-27.165-1h25.217L630.219-9.1l.608-.231a25.731,25.731,0,0,0,13.012-10.984,30.146,30.146,0,0,0,3.261-7.8,33.009,33.009,0,0,0,1.088-8.434c0-14.072-8.87-29.217-28.344-29.217H567.416v18.134h48.772c.242-.014.487-.021.729-.021a12.347,12.347,0,0,1,8.176,3.015,10.473,10.473,0,0,1,3.649,8.089,10.473,10.473,0,0,1-3.649,8.089,12.348,12.348,0,0,1-8.176,3.015c-.242,0-.487-.007-.729-.021H567.416v18h41.158l.148.227Zm-416.642.988H136.123V9.076h79.011Zm-78.011-1h77.011V10.076H137.123Zm264.885,1h-22.2V-32.857h22.2Zm-21.2-1h20.2V-31.857h-20.2Zm-262.74,1h-22.2V-25.743L66.57,29.207h-8.5l-.141-.265L28.9-25.735V29.207H6.7V-66.78h22l.141.266L62.38-3.3l33.7-63.478h22Zm-21.2-1h20.2V-65.78H96.678L62.38-1.168,28.1-65.78H7.7V28.207H27.9V-27.743l.942-.234L58.671,28.207h7.3L95.936-27.978l.941.235Zm403.57-17.738a30.059,30.059,0,0,1-19.5-7.231C476.626-.524,471.478-7.4,471.478-18.8a31.056,31.056,0,0,1,2.641-12.908,26.964,26.964,0,0,1,6.825-9.2,29.944,29.944,0,0,1,19.5-7.3h0a29.778,29.778,0,0,1,19.393,7.309,27.009,27.009,0,0,1,6.811,9.193,31.059,31.059,0,0,1,2.639,12.9c0,11.388-5.14,18.269-9.451,22.036A29.849,29.849,0,0,1,500.447,10.469Zm0-57.671c-13.559,0-27.969,9.955-27.969,28.4,0,11.02,4.962,17.656,9.124,21.283a29.045,29.045,0,0,0,18.845,6.985c13.5,0,27.843-9.907,27.843-28.267,0-18.432-14.346-28.391-27.843-28.4ZM329.759,4.725l-22.2-26.857V-66.78h22.2Zm-21.2-27.217,20.2,24.437V-65.78h-20.2ZM500.447-7.712a9.953,9.953,0,0,1-7.516-2.993,11.4,11.4,0,0,1-2.768-7.957h0c0-6.721,4.039-11.07,10.279-11.082a9.686,9.686,0,0,1,7.411,3.063,11.68,11.68,0,0,1,2.747,8.02C510.6-12.011,506.618-7.712,500.447-7.712ZM491.163-18.65c0,6.13,3.561,9.938,9.284,9.938a8.793,8.793,0,0,0,6.672-2.672,10.485,10.485,0,0,0,2.486-7.278c0-6.125-3.595-10.083-9.158-10.083A8.913,8.913,0,0,0,493.668-26a10.65,10.65,0,0,0-2.5,7.347ZM215.134-8.786H135.749v-20h79.385Zm-78.385-1h77.385v-18H136.749Zm78.385-36.86H135.749V-66.78h79.385Zm-78.385-1h77.385V-65.78H136.749Zm303.636.864H341.438v-20h98.946Zm-97.946-1h96.946v-18H342.438Z" transform="translate(-7.2 197.892)" fill="#e60000"/>
    </g>
  </g>
</svg>
