<svg xmlns="http://www.w3.org/2000/svg" xmlns:xlink="http://www.w3.org/1999/xlink" width="254.818" height="254" viewBox="0 0 254.818 254"><defs><linearGradient id="a" x1="0.5" x2="0.385" y2="1" gradientUnits="objectBoundingBox"><stop offset="0" stop-color="#ff00d4"/><stop offset="1" stop-color="#0df"/></linearGradient><filter id="m" x="0" y="195.759" width="254.818" height="58.241" filterUnits="userSpaceOnUse"><feOffset dy="3" input="SourceAlpha"/><feGaussianBlur stdDeviation="3" result="n"/><feFlood flood-opacity="0.161"/><feComposite operator="in" in2="n"/><feComposite in="SourceGraphic"/></filter></defs><g transform="translate(19.513 -169.908)"><path d="M116.207-186.956c-8.274,1.692-19.783,4.007-25.555,5.185-11.142,2.242-11.766,2.463-11.766,4.486,0,2.463-.92,2.205,27.282,8.126l25.959,5.442,21.988-4.486,22.024-4.486.109,10.37.073,10.37-2.759,12.317c-1.508,6.8-2.759,12.648-2.759,13.017a2.538,2.538,0,0,0,.845,1.508c.809.772,1.178.809,7.538.809,6.214,0,6.729-.036,7.427-.736a2.937,2.937,0,0,0,.736-1.8c0-.551-1.251-6.545-2.759-13.311L181.84-152.43V-173.9l1.729-.257c3.089-.442,4.34-2.759,2.611-4.706-.772-.845-2.759-1.287-27.467-6.1-14.634-2.832-26.8-5.148-27.025-5.112C131.467-190.082,124.517-188.685,116.207-186.956ZM180-135.074c.442,1.984.882,3.971.993,4.413.184.809.073.845-1.911.845-1.8,0-2.059-.073-1.875-.661.073-.33.551-2.317.993-4.413a30.924,30.924,0,0,1,.92-3.75C179.156-138.641,179.561-137.024,180-135.074Z" transform="translate(-52.044 359.992)" fill="url(#a)"/><path d="M586.26-188.839c-3.125.663-5.773,1.251-5.884,1.287s2.5.624,5.809,1.287c6.95,1.433,8.714,2.28,10.222,4.816a8.289,8.289,0,0,1-2.647,11.251c-1.251.736-1.251.772-1.251,3.456,0,2.426.073,2.72.7,2.72.4,0,10.074-1.911,21.546-4.228s21.179-4.228,21.548-4.228c.663,0,.7.442.7,9.964v9.966L634.242-140.3c-1.508,6.766-2.758,12.869-2.758,13.568,0,2.28.7,2.463,8.456,2.353l6.729-.11.736-.993.736-.993-2.832-12.8-2.793-12.8v-21.842l1.4-.257c1.765-.294,2.978-1.066,3.383-2.205a2.6,2.6,0,0,0-1.066-3.089c-.7-.33-53.279-10.7-53.976-10.627C592.105-190.053,589.385-189.5,586.26-188.839Zm54.418,54.234c.4,1.911.845,3.786.957,4.119.185.588-.073.661-1.838.661-1.139,0-2.059-.184-2.059-.367,0-.442,1.4-6.839,1.729-7.9C639.721-138.979,639.721-139.018,640.678-134.605Z" transform="translate(-457.197 360)" fill="url(#a)"/><path d="M211.185-49.26l.109,3.235,2.574.624c13.09,3.271,35.262,3.31,50.117.073l2.647-.588v-3.31c0-3.235,0-3.31-.809-3.162-.478.109-6.729,1.36-13.935,2.832L238.8-46.908,225.634-49.7c-7.208-1.508-13.457-2.759-13.825-2.759C211.148-52.46,211.075-52.2,211.185-49.26Z" transform="translate(-158.897 248.807)" fill="url(#a)"/><path d="M657.155-49.521c-7.169,1.471-13.163,2.684-13.311,2.72-.184,0-.294.92-.294,2.1v2.059l5.811-.221c3.162-.148,7.832-.515,10.37-.809,4.449-.551,10.7-1.765,11.4-2.205a8.588,8.588,0,0,0,.367-3.346c0-2.72-.073-3.089-.624-3.052C670.5-52.28,664.326-51.029,657.155-49.521Z" transform="translate(-508.238 248.663)" fill="url(#a)"/><path d="M187.916,12.861c0,1.69-.073,1.838-1.581,2.941a13.255,13.255,0,0,0-2.684,2.684l-1.066,1.544-.109,6.618c-.11,5.479-.036,6.875.478,8.2.736,1.986,3.235,4.228,5.846,5.294l1.911.809.624,4.486c2.759,20.261,14.671,31.77,29.268,28.35,6.693-1.581,12.905-7.538,16.252-15.591a58.871,58.871,0,0,0,3.492-14.083l.221-3.125,2.317-.993c2.611-1.139,4.816-3.052,5.552-4.854.367-.92.515-3.162.515-8.677,0-9.34-.478-10.7-4.155-12.244-1.214-.515-1.36-.7-1.36-1.875,0-1.066-.109-1.251-.624-1.1-6.729,2.1-23.054,3.419-33.754,2.8-8.162-.478-16.914-1.69-20.48-2.8C187.989,11.059,187.916,11.317,187.916,12.861Z" transform="translate(-135.701 197.385)" fill="url(#a)"/><path d="M564.372,12.889a118.426,118.426,0,0,1-18.127,1.948,15.158,15.158,0,0,0-3.64.294c-.33.184.148,2.832,1.765,10.185,2.538,11.288,2.647,13.053.957,15.591a10.934,10.934,0,0,1-2.538,2.5l-1.546,1.03H524.182L522.565,43.3l-1.581-1.1-1.471,1.1c-.809.624-1.838,1.4-2.28,1.692-.736.551-.736.624-.257,3.492a57.3,57.3,0,0,0,3.273,11.1l.882,1.948h2.5c7.759.036,17.429,4.082,23.642,9.891,2.39,2.244,2.5,2.244,5.957-.294,5.994-4.449,10.7-13.532,12.06-23.238.993-7.023.663-6.214,2.9-7.023,2.684-.993,5.331-3.6,5.921-5.809.294-1.1.4-3.934.294-8.641-.109-5.846-.257-7.208-.809-8.383a5.563,5.563,0,0,0-3.6-3.089c-.882-.184-1.03-.367-1.03-1.433,0-.663-.109-1.251-.257-1.324A25.781,25.781,0,0,0,564.372,12.889Z" transform="translate(-405.71 196.585)" fill="url(#a)"/><path d="M212.465,276.129c-.551.7-.92,1.433-.809,1.617.184.294,5.479,4.155,6.729,4.927.257.184-.33-.845-1.287-2.244a32.776,32.776,0,0,1-2.426-4.082c-.405-.809-.809-1.508-.957-1.508A4.379,4.379,0,0,0,212.465,276.129Z" transform="translate(-159.296 -15.618)" fill="url(#a)"/><path d="M465.942,276.394c-.442.882-1.617,2.8-2.611,4.265l-1.8,2.684,3.419-2.463c1.875-1.36,3.567-2.574,3.75-2.759.294-.257-1.36-3.271-1.8-3.271A7.1,7.1,0,0,0,465.942,276.394Z" transform="translate(-361.185 -15.626)" fill="url(#a)"/><path d="M755.813,276.348a29.038,29.038,0,0,1-2.426,4.044,12.873,12.873,0,0,0-1.544,2.538c.111,0,6.4-4.413,7.1-5a10.913,10.913,0,0,0-2.205-3.089A5.4,5.4,0,0,0,755.813,276.348Z" transform="translate(-595.719 -15.618)" fill="url(#a)"/><path d="M33.532,298.093C19.486,301.07,10,312.47,10,326.22c0,2.244.109,2.684.92,3.456l.882.92H76.294c63.795,0,64.53,0,65.449-.736,1.139-.92,1.4-2.538.92-6.618a29.334,29.334,0,0,0-27.319-25.628l-3.31-.184L94.753,309.784c-12.869,9.192-17.539,12.354-18.311,12.354s-5.369-3.126-18.165-12.318L41.18,297.5l-2.647.036A27.976,27.976,0,0,0,33.532,298.093Z" transform="translate(3.606 -33.869)" fill="url(#a)"/><path d="M727.37,305.689l-10.7,7.722,1.03,3.2c1.251,3.9,1.986,9.78,1.545,12.5l-.33,1.948h48.463l.882-.92c.772-.736.92-1.214.92-3.2a28.9,28.9,0,0,0-18.5-26.767,29.418,29.418,0,0,0-10.295-2.169h-2.28Z" transform="translate(-567.312 -34.332)" fill="url(#a)"/><path d="M326.913,361.914a29.129,29.129,0,0,1-11.582.148c-1.4-.294-2.647-.551-2.72-.551s1.729,1.324,4.007,2.978c2.28,1.617,4.34,2.868,4.6,2.759a94.916,94.916,0,0,0,8.274-5.957c0-.073-.036-.109-.073-.109C329.339,361.215,328.236,361.545,326.913,361.914Z" transform="translate(-240.871 -85.372)" fill="url(#a)"/><g transform="translate(-10.513 320.583)"><path d="M3.456-38.922,16.565-69.174h.8L30.438-38.922H25.452L23.642-43.1H10.292l-1.81,4.176Zm18.1-8.948L16.967-58.437,12.343-47.87ZM34.5-64.061a7.912,7.912,0,0,1,1.387-2.6,8.167,8.167,0,0,1,2.151-1.854,9.9,9.9,0,0,1,2.694-1.108,12.381,12.381,0,0,1,3.016-.362,12.9,12.9,0,0,1,5.368,1.172A14.19,14.19,0,0,1,53.64-65.6l-3.177,3.75a10.233,10.233,0,0,0-3.157-2.3,8.75,8.75,0,0,0-3.72-.81,7.969,7.969,0,0,0-1.769.192,4.42,4.42,0,0,0-1.508.639,3.3,3.3,0,0,0-1.066,1.193,3.869,3.869,0,0,0-.4,1.853,1.882,1.882,0,0,0,.161.81Zm4.7,4.218a4.793,4.793,0,0,0,1.91,1.662q1.347.724,3.056,1.449t3.519,1.555a15.728,15.728,0,0,1,3.317,2.045A10.614,10.614,0,0,1,53.5-50.256a7.807,7.807,0,0,1,.985,4.048,7.4,7.4,0,0,1-.925,3.771,8.635,8.635,0,0,1-2.372,2.663A10.029,10.029,0,0,1,47.91-38.2a13.471,13.471,0,0,1-3.639.511,16.437,16.437,0,0,1-3.116-.3,13.512,13.512,0,0,1-2.976-.937A12.729,12.729,0,0,1,35.5-40.541a11.152,11.152,0,0,1-2.212-2.344L37.033-46a6.787,6.787,0,0,0,3.317,2.578,12.17,12.17,0,0,0,4.081.7,9.571,9.571,0,0,0,1.729-.17,5.987,5.987,0,0,0,1.729-.6,3.908,3.908,0,0,0,1.327-1.129,2.883,2.883,0,0,0,.523-1.768A3.036,3.036,0,0,0,48.694-48.7a11.188,11.188,0,0,0-2.654-1.747q-1.608-.788-3.519-1.577a26.837,26.837,0,0,1-3.639-1.832,13.245,13.245,0,0,1-3.016-2.471,6.878,6.878,0,0,1-1.649-3.515ZM57.34-63.976v-4.772H80.5v4.772H71.293v25.054H66.468V-63.976Zm32.089-4.772v18.492a7.616,7.616,0,0,0,.563,3.047,6.493,6.493,0,0,0,1.488,2.173,6,6,0,0,0,2.111,1.3,7.033,7.033,0,0,0,2.393.426,6.976,6.976,0,0,0,2.413-.426,6.037,6.037,0,0,0,2.091-1.3,6.493,6.493,0,0,0,1.488-2.173,7.617,7.617,0,0,0,.563-3.047V-68.748h4.825v18.492a13.711,13.711,0,0,1-.985,5.39,11.79,11.79,0,0,1-2.574,3.877,10.317,10.317,0,0,1-3.639,2.322,11.851,11.851,0,0,1-4.182.767,11.851,11.851,0,0,1-4.182-.767,10.317,10.317,0,0,1-3.639-2.322,11.789,11.789,0,0,1-2.574-3.877,13.711,13.711,0,0,1-.985-5.39v-9.587l4.825-4.133H84.6v-4.772Z" transform="translate(63 69.984)" fill="#ff2d00"/><g transform="matrix(1, 0, 0, 1, -9, -150.68)" filter="url(#m)" style="mix-blend-mode:lighten;isolation:isolate"><path d="M7.2-30.408h7.713v-22.44l10.908,22.44H28.7l10.953-22.44v22.44h7.713v-37.76H39.649L27.281-42.706,14.913-68.167H7.2Zm46.962-37.76v7.606H82.686v-7.606Zm0,15.1v7.552H82.686v-7.552Zm.137,15.05v7.606H82.686v-7.606Zm35.05,7.606h7.713v-26L115.683-30.3l8.717-.108L97.062-68.167H89.349ZM116.687-50.69l7.713,10.2V-68.167h-7.713Zm12.322-17.477v7.552h35.644v-7.552Zm13.965,37.76h7.713V-54.682h-7.713Zm61.931-18.88c0-13.486-9.858-20.121-18.21-20.121-8.4,0-18.21,6.635-18.21,20.121S178.3-29.167,186.7-29.167C195.048-29.167,204.906-35.8,204.906-49.287Zm-7.9,0c0,7.714-5.568,11.436-10.314,11.436-4.792,0-10.36-3.722-10.36-11.436s5.568-11.49,10.36-11.49C191.443-60.777,197.011-57,197.011-49.287Zm-13.874.054c0,2.535,1.369,4.154,3.56,4.154,2.145,0,3.514-1.618,3.514-4.154s-1.369-4.208-3.514-4.208C184.506-53.441,183.136-51.769,183.136-49.234Zm42.809,4.639,8.443,14.187h9.63L234.206-45.35c4.29-1.78,6.435-6.419,6.435-11,0-5.934-3.469-11.813-10.5-11.813H210.885v7.606h17.936a4.123,4.123,0,0,1,4.381,4.208,4.123,4.123,0,0,1-4.381,4.208H210.885v7.552Z" transform="translate(1.8 271.17)" fill="#ffbb20"/></g></g></g></svg>